<svg width="1080" height="810" viewBox="0 0 1080 810" fill="none" xmlns="http://www.w3.org/2000/svg">
<rect width="1080" height="810" fill="#080808"/>
<path d="M631.27 389.541H513.485C505.471 399.057 497.287 408.758 488.109 419.641H605.928C613.959 410.091 622.142 400.373 631.27 389.541ZM616.068 352H494.773C486.641 361.634 478.475 371.319 469.246 382.252H590.659L616.068 352ZM545.104 457.553C553.506 447.565 561.52 438.015 570.412 427.419H452.458C444.308 437.138 436.159 446.856 427.183 457.553H545.104ZM478.121 419.557C486.236 409.872 494.369 400.17 503.395 389.389H482.136C474.004 398.972 465.77 408.691 456.575 419.557H478.137H478.121ZM660.24 389.389H638.779C630.595 399.124 622.429 408.826 613.301 419.692H634.645C642.727 410.108 650.96 400.356 660.223 389.389H660.24ZM573.972 457.351C582.02 447.75 590.153 438.049 599.196 427.25H578.005C569.821 436.952 561.638 446.654 552.629 457.351H573.989H573.972ZM623.56 352C615.225 361.87 607.025 371.555 597.931 382.32H615.95C624.319 372.365 632.418 362.697 641.411 352H623.56ZM461.248 389.423C452.863 399.344 444.73 408.944 435.569 419.759H448.628C456.929 409.889 465.112 400.17 474.156 389.423H461.231H461.248ZM428.938 419.844C437.104 410.091 445.388 400.204 454.381 389.49H444.308C436.092 399.344 428.01 409.028 419 419.844H428.938Z" fill="#F5F5F5"/>
<path d="M631.272 389.541C622.144 400.373 613.961 410.091 605.929 419.641H488.127C497.289 408.759 505.472 399.057 513.503 389.541H631.272Z" fill="#F5F5F5"/>
<path d="M616.069 352L590.659 382.252H469.246C478.475 371.336 486.641 361.651 494.774 352H616.069Z" fill="#F5F5F5"/>
<path d="M545.103 457.569H427.199C436.158 446.889 444.325 437.154 452.474 427.436H570.411C561.52 438.031 553.505 447.564 545.103 457.569Z" fill="#F5F5F5"/>
<path d="M478.121 419.574H456.559C465.771 408.708 474.005 399.007 482.12 389.406H503.379C494.353 400.188 486.22 409.889 478.105 419.574H478.121Z" fill="#F5F5F5"/>
<path d="M573.989 457.366H552.629C561.639 446.669 569.822 436.967 578.005 427.266H599.196C590.136 438.064 582.02 447.765 573.972 457.366H573.989Z" fill="#F5F5F5"/>
<path d="M461.249 389.422H474.173C465.129 400.17 456.946 409.888 448.645 419.758H435.586C444.748 408.943 452.88 399.326 461.266 389.422H461.249Z" fill="#F5F5F5"/>
<path d="M428.938 419.844H419C428.01 409.028 436.092 399.327 444.308 389.49H454.381C445.405 400.204 437.104 410.108 428.938 419.844Z" fill="#F5F5F5"/>
</svg>
