<svg width="1080" height="810" viewBox="0 0 1080 810" fill="none" xmlns="http://www.w3.org/2000/svg">
<rect width="1080" height="810" fill="#080808"/>
<path d="M490.671 386.47L534.637 430.153L520.6 444.307C501.561 425.024 482.5 405.718 463.416 386.388L555.124 289.451C587.425 321.549 619.719 353.64 652.006 385.725C651.809 385.935 651.646 386.125 651.472 386.302C641.069 396.874 630.666 407.446 620.262 418.016C601.032 437.56 581.803 457.104 562.576 476.649C554.455 484.904 546.336 493.161 538.219 501.419C537.812 501.836 537.324 502.165 536.786 502.387C521.808 508.697 506.832 515.014 491.86 521.337C491.601 521.46 491.318 521.523 491.031 521.522C491.22 521.326 491.406 521.129 491.593 520.935C502.595 509.67 513.597 498.406 524.599 487.142C539.341 472.045 554.083 456.948 568.824 441.85C582.764 427.572 596.704 413.293 610.643 399.015C614.092 395.483 617.54 391.95 620.989 388.417C621.577 387.812 622.085 387.153 622.233 386.269C622.443 385.014 621.952 384.023 621.125 383.161C620.103 382.098 619.065 381.052 618.037 380C598.858 360.408 579.679 340.816 560.498 321.224C560.274 320.985 560.037 320.759 559.788 320.547C558.478 319.483 556.681 319.519 555.413 320.63C555.203 320.814 555.008 321.019 554.811 321.219L520.514 356.1C510.755 366.026 500.997 375.952 491.239 385.878C491.062 386.055 490.89 386.239 490.671 386.47Z" fill="white"/>
<path d="M588.073 386.402L544.271 341.17C548.702 336.738 553.123 332.345 557.601 327.87L613.446 386.435L521.261 482.002L427 385.556C427.14 385.387 427.235 385.258 427.345 385.144C441.892 370.184 456.439 355.224 470.987 340.264C480.283 330.705 489.579 321.144 498.874 311.582C506.294 303.951 513.71 296.317 521.122 288.679C521.609 288.183 522.092 288 522.774 288C530.564 288.019 538.355 288.022 546.145 288.007C546.419 288.007 546.694 288.007 547.062 288.007C546.885 288.437 546.602 288.644 546.373 288.884C542.978 292.434 539.58 295.982 536.179 299.527C526.583 309.545 516.988 319.564 507.393 329.582C499.529 337.795 491.667 346.007 483.805 354.218C476.314 362.041 468.821 369.863 461.328 377.683C459.661 379.423 457.998 381.165 456.337 382.909C456.018 383.249 455.724 383.614 455.46 383.999C454.695 385.102 454.702 386.427 455.472 387.543C455.692 387.873 455.94 388.183 456.214 388.47C473.707 406.244 491.204 424.014 508.703 441.782C511.756 444.883 514.81 447.982 517.865 451.081C518.146 451.361 518.426 451.654 518.749 451.876C519.9 452.665 521.346 452.661 522.509 451.873C522.815 451.657 523.099 451.413 523.359 451.144C544.769 429.738 566.177 408.332 587.583 386.925C587.728 386.773 587.869 386.619 588.073 386.402Z" fill="white"/>
</svg>
