<svg width="1080" height="810" viewBox="0 0 1080 810" fill="none" xmlns="http://www.w3.org/2000/svg">
<rect width="1080" height="810" fill="#080808"/>
<path d="M334 499.167C343.987 452.217 353.993 405.194 364.019 358.098H403.707L394.675 400.916H402.722C405.806 386.67 408.869 372.464 411.983 358.059H451.67C448.865 371.151 446.14 383.906 443.355 396.959L424.118 413.084L436.452 429.189C433.687 442.262 430.921 455.365 428.067 468.885L381.625 500.638L397.54 425.402H389.483C386.37 439.896 383.276 454.232 380.133 468.915L335.134 499.734L334 499.167Z" fill="#F1F1F1"/>
<path d="M711.532 413.105L723.915 429.121C721.197 442.011 718.405 455.266 715.54 468.886L669.049 500.699C674.52 474.851 679.702 450.455 684.964 425.552H676.877L667.527 469.005L621.105 500.689L651.443 358.119H691.091L682.089 400.867H690.136C693.23 386.512 696.293 372.295 699.377 358.02H739.064C736.259 371.132 733.524 383.867 730.729 396.95L711.532 413.105Z" fill="#F1F1F1"/>
<path d="M619.731 468.716H532.09C539.968 431.684 547.776 395 555.634 358.088H643.275C635.387 395.04 627.599 431.734 619.731 468.716ZM590.358 381.57L576.96 444.946H585.037C589.513 423.89 593.989 402.973 598.495 381.57H590.358Z" fill="#F1F1F1"/>
<path d="M481.212 444.858H489.17C490.901 437.144 492.651 429.31 494.472 421.198L535.711 413.244L523.984 468.668H436.303C444.171 431.626 451.969 394.883 459.807 358H499.515C493.377 387.019 487.32 415.73 481.212 444.858Z" fill="#F1F1F1"/>
<rect x="226" y="468" width="525" height="138" fill="#080808"/>
</svg>
