<svg width="1080" height="810" viewBox="0 0 1080 810" fill="none" xmlns="http://www.w3.org/2000/svg">
<rect width="1080" height="810" fill="#080808"/>
<path d="M545.275 475.875C545.275 454.68 545.275 433.48 545.275 412.275C545.275 409.613 545.317 409.576 548.23 409.576H603.562C606.899 409.576 606.907 409.576 606.907 412.488V539.306C606.907 542.295 606.907 542.284 603.652 542.284H548.325C545.333 542.284 545.284 542.258 545.284 539.475C545.284 518.28 545.284 497.08 545.284 475.875H545.275ZM580.254 475.934C580.254 463.501 580.254 451.068 580.254 438.638C580.254 432.991 580.879 433.858 574.735 433.807C572.118 433.785 571.982 433.928 571.982 436.325C571.982 461.986 571.982 487.647 571.982 513.307C571.982 518.734 571.25 517.998 577.381 518.054C580.122 518.076 580.262 517.951 580.262 515.432C580.254 502.269 580.247 489.102 580.241 475.934H580.254Z" fill="#F1F1F1"/>
<path d="M535.315 334.578C535.315 355.717 535.315 376.855 535.315 397.991C535.315 400.668 535.315 400.697 532.385 400.704C525.323 400.704 518.257 400.657 511.196 400.737C509.192 400.759 508.603 400.101 508.62 398.374C508.698 391.267 508.657 384.161 508.649 377.051C508.649 374.794 508.472 374.606 505.974 374.624C499.53 374.676 500.41 373.959 500.373 379.588C500.332 385.837 500.373 392.087 500.373 398.337C500.373 400.579 500.209 400.712 497.67 400.712H477.506C474.061 400.712 474.053 400.712 474.053 397.712C474.053 358.929 474.053 320.146 474.053 281.363C474.053 277.625 474.107 273.886 474.028 270.151C473.996 268.533 474.707 268 476.465 268C495.254 268.037 514.046 268.037 532.841 268C535.146 268 535.347 268.982 535.347 270.614C535.304 291.937 535.293 313.258 535.315 334.578ZM508.653 321.27C508.653 313.182 508.653 305.094 508.653 297.006C508.653 291.389 509.208 292.334 503.262 292.227C500.505 292.187 500.381 292.334 500.381 294.8C500.381 311.712 500.353 328.623 500.381 345.504C500.381 351.056 499.558 350.284 505.879 350.379C508.496 350.42 508.645 350.254 508.649 347.868C508.657 339.013 508.658 330.147 508.653 321.27Z" fill="#F1F1F1"/>
<path d="M474.042 475.951C474.042 454.754 474.042 433.554 474.042 412.351C474.042 409.612 474.075 409.594 477.153 409.594C483.872 409.594 490.593 409.594 497.317 409.594C500.28 409.594 500.37 409.678 500.37 412.233C500.37 437.723 500.37 463.212 500.37 488.701C500.37 491.969 500.37 491.976 503.93 491.98C509.111 491.98 508.646 492.432 508.646 487.712C508.646 462.654 508.646 437.598 508.646 412.542C508.646 409.601 508.646 409.601 511.963 409.601C518.753 409.601 525.541 409.601 532.328 409.601C535.25 409.601 535.308 409.66 535.308 412.289C535.308 438.023 535.308 463.757 535.308 489.491C535.308 506.216 535.308 522.941 535.308 539.666C535.308 542.239 535.172 542.316 532.275 542.309C525.349 542.291 518.423 542.309 511.498 542.287C508.724 542.287 508.654 542.221 508.65 539.68C508.65 532.633 508.592 525.589 508.65 518.545C508.671 516.814 508.057 516.126 506.062 516.174C499.514 516.339 500.391 515.439 500.354 521.244C500.313 527.493 500.296 533.743 500.387 539.993C500.412 541.765 499.696 542.335 497.749 542.316C490.753 542.243 483.758 542.294 476.762 542.294C474.149 542.294 474.034 542.191 474.03 539.754C474.024 518.48 474.028 497.213 474.042 475.951Z" fill="#F1F1F1"/>
<path d="M402.008 334.382C402.008 313.493 402.008 292.603 402.008 271.711C402.008 268.035 402.008 268.035 406.181 268.035C424.287 268.035 442.394 268.035 460.5 268.035C463.693 268.035 463.698 268.035 463.698 270.888C463.698 285.773 463.739 300.666 463.656 315.544C463.656 317.088 463.072 318.666 462.537 320.165C461.484 323.143 460.126 326.048 459.2 329.044C458.759 330.484 458.722 331.999 459.093 333.455C460.052 336.896 461.488 340.231 462.488 343.665C463.181 345.827 463.571 348.059 463.648 350.308C463.747 366.233 463.702 382.163 463.698 398.1C463.698 400.673 463.661 400.699 460.846 400.703C453.784 400.703 446.719 400.648 439.657 400.736C437.559 400.762 436.966 400.085 436.974 398.269C437.036 382.711 436.822 367.149 437.118 351.58C437.213 346.561 436.258 341.955 433.55 337.698C431.172 333.959 430.53 330.558 433.801 326.956C436.912 323.526 437.205 319.434 437.069 315.155C436.838 307.993 437.011 300.817 436.999 293.655C436.999 291.306 436.83 291.181 434.184 291.148C433.225 291.148 432.267 291.148 431.304 291.148C428.423 291.148 428.341 291.233 428.341 293.872C428.341 319.852 428.341 345.831 428.341 371.81C428.341 380.634 428.341 389.457 428.341 398.28C428.341 400.585 428.188 400.721 425.711 400.721C418.65 400.721 411.584 400.673 404.523 400.739C402.658 400.739 401.996 400.214 402 398.534C402.047 377.157 402.056 355.778 402.029 334.397L402.008 334.382Z" fill="#F1F1F1"/>
<path d="M545.286 334.348C545.286 313.148 545.286 291.948 545.286 270.748C545.286 268.093 545.34 268.057 548.253 268.057C566.837 268.057 585.422 268.057 604.008 268.057C606.827 268.057 606.926 268.138 606.926 270.63C606.926 281.17 606.897 291.71 606.967 302.246C606.967 303.963 606.272 304.474 604.432 304.452C597.371 304.39 590.305 304.379 583.244 304.452C581.289 304.474 580.54 303.897 580.606 302.129C580.717 299.129 580.606 296.122 580.655 293.122C580.684 291.688 580.001 291.122 578.433 291.188C577.063 291.258 575.689 291.258 574.318 291.188C572.487 291.078 571.956 291.846 571.956 293.394C571.986 319.863 571.986 346.333 571.956 372.803C571.956 374.589 572.705 375.141 574.627 375.111C581.622 374.997 580.622 375.872 580.635 369.773C580.668 352.127 580.668 334.481 580.635 316.834C580.635 314.066 580.635 314.073 583.725 314.073C590.515 314.073 597.305 314.051 604.095 314.073C606.799 314.073 606.938 314.209 606.938 316.533C606.938 343.796 606.938 371.062 606.938 398.331C606.938 400.125 606.403 400.809 604.276 400.801C585.418 400.743 566.558 400.743 547.698 400.801C545.356 400.801 545.229 399.783 545.229 398.18C545.261 376.921 545.268 355.66 545.249 334.396L545.286 334.348Z" fill="#F1F1F1"/>
<path d="M463.705 501.864C463.705 514.427 463.705 526.988 463.705 539.546C463.705 542.274 463.705 542.266 460.573 542.266L405.229 542.289C402.616 542.289 402.439 542.149 402.439 539.789C402.439 525.328 402.439 510.868 402.439 496.408C402.439 493.882 402.534 493.794 405.32 493.79C412.247 493.79 419.173 493.79 426.097 493.79C428.616 493.79 428.751 493.926 428.755 496.217C428.755 502.65 428.755 509.084 428.755 515.521C428.755 517.907 428.92 518.073 431.525 518.043C437.726 517.97 437.014 518.778 437.035 513.179C437.06 504.849 437.035 496.515 437.035 488.18C437.035 485.721 436.899 485.607 434.101 485.607L405.098 485.636C402.596 485.636 402.452 485.519 402.448 483.217C402.448 459.505 402.448 435.793 402.448 412.08C402.448 409.698 402.583 409.588 405.234 409.588H460.577C463.697 409.588 463.705 409.588 463.705 412.327C463.705 424.949 463.705 437.571 463.705 450.193C463.705 452.873 463.656 452.913 460.771 452.913H439.99C437.109 452.913 437.047 452.862 437.043 450.2C437.043 445.546 437.043 440.888 437.043 436.23C437.043 433.896 436.879 433.778 434.2 433.785C433.24 433.83 432.279 433.83 431.319 433.785C429.286 433.594 428.718 434.44 428.731 436.142C428.797 443.801 428.797 451.46 428.731 459.119C428.731 460.876 429.402 461.468 431.364 461.457C441.105 461.391 450.841 461.424 460.582 461.428C463.689 461.428 463.709 461.453 463.709 464.174C463.723 476.737 463.721 489.3 463.705 501.864Z" fill="#F1F1F1"/>
<path d="M616.851 368.867C616.851 359.123 616.851 349.379 616.851 339.637C616.851 337.328 616.979 337.203 619.481 337.199C626.542 337.199 633.608 337.229 640.669 337.148C642.575 337.126 643.167 337.74 643.138 339.398C643.081 350.364 643.105 361.335 643.114 372.305C643.114 374.948 643.188 375.04 646.072 375.033C652.187 375.014 651.389 375.624 651.422 370.224C651.455 363.974 651.138 357.724 651.521 351.475C651.829 346.39 650.838 341.67 647.961 337.413C645.373 333.582 645.492 330.299 648.496 326.751C650.854 323.968 651.64 320.726 651.508 317.101C651.216 309.267 651.373 301.414 651.463 293.573C651.463 291.705 650.739 291.113 648.706 291.15C642.249 291.245 643.159 290.536 643.159 296.131C643.118 305.815 643.105 315.498 643.188 325.174C643.188 327.038 642.5 327.612 640.447 327.59C633.451 327.501 626.456 327.516 619.46 327.59C617.505 327.59 616.831 327.009 616.835 325.248C616.876 306.935 616.872 288.616 616.822 270.29C616.822 268.654 617.394 268 619.291 268C638.086 268.044 656.879 268.044 675.668 268C677.569 268 678.162 268.621 678.158 270.272C678.112 285.529 678.224 300.785 678.038 316.046C678.01 318.406 677.117 320.932 675.931 323.075C672.927 328.49 672.779 333.769 675.549 339.251C677.94 343.986 678.252 349.019 678.199 354.166C678.047 368.812 678.137 383.455 678.129 398.101C678.129 400.634 678.08 400.675 675.248 400.675C656.662 400.675 638.075 400.675 619.489 400.675C616.966 400.675 616.839 400.557 616.835 398.252C616.84 388.468 616.846 378.673 616.851 368.867Z" fill="#F1F1F1"/>
<path d="M616.889 475.956C616.889 454.699 616.889 433.444 616.889 412.19C616.889 409.646 616.968 409.598 619.745 409.595L674.476 409.576C678.18 409.576 678.18 409.576 678.18 412.944V513.068C678.18 516.175 678.18 516.182 674.628 516.182C665.235 516.182 655.842 516.182 646.448 516.182C643.695 516.182 643.568 516.296 643.568 518.815C643.568 525.8 643.592 532.785 643.568 539.77C643.568 542.156 643.444 542.251 640.774 542.258C633.781 542.258 626.785 542.258 619.787 542.258C616.955 542.258 616.877 542.211 616.873 539.714C616.881 518.465 616.887 497.212 616.889 475.956ZM651.868 462.92C651.868 454.894 651.901 446.869 651.868 438.847C651.839 433.075 652.732 433.888 646.181 433.77C644.201 433.733 643.564 434.369 643.572 436.116C643.621 453.082 643.572 470.052 643.621 487.018C643.621 492.628 642.609 491.926 649.189 491.974C651.695 491.974 651.872 491.823 651.872 489.562C651.864 480.68 651.855 471.799 651.847 462.92H651.868Z" fill="#F1F1F1"/>
<rect x="651.412" y="523.844" width="26.6891" height="18.3286" rx="2" fill="#F1F1F1"/>
</svg>
