<svg width="1080" height="810" viewBox="0 0 1080 810" fill="none" xmlns="http://www.w3.org/2000/svg">
<rect width="1080" height="810" fill="#080808"/>
<path d="M550.422 504.001H639.001V408.695H536.801L550.422 504.001ZM604.899 442.868V469.872H579.698L575.773 442.868H604.899Z" fill="#F1F1F1"/>
<path d="M639.002 339.881V306H550.193L536.562 401.2H639.002V367.23H575.606L579.592 339.881H639.002Z" fill="#F1F1F1"/>
<path d="M529.093 404.93L529.597 401.394L543.236 306H441V340.217V367.557V401.412V408.483V504.001H543.245L529.579 408.457L529.093 404.93ZM504.245 340.217L497.289 388.029H474.987V340.217H504.245ZM475.076 469.59L474.961 421.99H497.289L504.237 469.59H475.076Z" fill="#F1F1F1"/>
</svg>
