<svg width="1080" height="810" viewBox="0 0 1080 810" fill="none" xmlns="http://www.w3.org/2000/svg">
<rect width="1080" height="810" fill="#F5F5F5"/>
<path d="M337 500.167C346.987 453.217 356.993 406.194 367.019 359.098H406.707L397.675 401.916H405.722C408.806 387.67 411.869 373.464 414.983 359.059H454.67C451.865 372.151 449.14 384.906 446.355 397.959L427.118 414.084L439.452 430.189C436.687 443.262 433.921 456.365 431.067 469.885L384.625 501.638L400.54 426.402H392.483C389.37 440.896 386.276 455.232 383.133 469.915L338.134 500.734L337 500.167Z" fill="#1C1C1C"/>
<path d="M714.532 414.105L726.915 430.121C724.197 443.011 721.405 456.266 718.54 469.886L672.049 501.699C677.52 475.851 682.702 451.455 687.964 426.552H679.877L670.527 470.005L624.105 501.689L654.443 359.119H694.091L685.089 401.867H693.136C696.23 387.512 699.293 373.295 702.377 359.02H742.064C739.259 372.132 736.524 384.867 733.729 397.95L714.532 414.105Z" fill="#1C1C1C"/>
<path d="M622.731 469.716H535.09C542.968 432.684 550.776 396 558.634 359.088H646.275C638.387 396.04 630.599 432.734 622.731 469.716ZM593.358 382.57L579.96 445.946H588.037C592.513 424.89 596.989 403.973 601.495 382.57H593.358Z" fill="#1C1C1C"/>
<path d="M484.212 445.858H492.17C493.901 438.144 495.651 430.31 497.472 422.198L538.711 414.244L526.984 469.668H439.303C447.171 432.626 454.969 395.883 462.807 359H502.515C496.377 388.019 490.32 416.73 484.212 445.858Z" fill="#1C1C1C"/>
<rect x="205" y="460" width="525" height="138" fill="#F5F5F5"/>
</svg>
