<svg width="1080" height="810" viewBox="0 0 1080 810" fill="none" xmlns="http://www.w3.org/2000/svg">
<rect width="1080" height="810" fill="#F5F5F5"/>
<path d="M371.186 471H365.385L356.069 458.08C353.784 460.131 351.352 462.064 348.774 463.881C346.254 465.639 343.588 467.191 340.776 468.539C337.963 469.828 335.063 470.854 332.075 471.615C329.145 472.377 326.157 472.758 323.11 472.758C316.489 472.758 310.248 471.645 304.389 469.418C298.588 467.191 293.491 463.969 289.096 459.75C284.76 455.473 281.332 450.258 278.813 444.105C276.293 437.953 275.034 430.951 275.034 423.1C275.034 415.775 276.293 409.066 278.813 402.973C281.332 396.82 284.76 391.547 289.096 387.152C293.491 382.758 298.588 379.359 304.389 376.957C310.248 374.496 316.489 373.266 323.11 373.266C326.157 373.266 329.174 373.646 332.163 374.408C335.151 375.17 338.051 376.225 340.864 377.572C343.676 378.92 346.342 380.502 348.862 382.318C351.44 384.135 353.842 386.098 356.069 388.207L365.385 377.045H371.186V471ZM347.016 423.1C347.016 419.818 346.371 416.654 345.082 413.607C343.852 410.502 342.153 407.777 339.985 405.434C337.817 403.031 335.268 401.127 332.338 399.721C329.467 398.256 326.391 397.523 323.11 397.523C319.829 397.523 316.723 398.08 313.793 399.193C310.922 400.307 308.403 401.947 306.235 404.115C304.125 406.283 302.455 408.979 301.225 412.201C299.995 415.365 299.379 418.998 299.379 423.1C299.379 427.201 299.995 430.863 301.225 434.086C302.455 437.25 304.125 439.916 306.235 442.084C308.403 444.252 310.922 445.893 313.793 447.006C316.723 448.119 319.829 448.676 323.11 448.676C326.391 448.676 329.467 447.973 332.338 446.566C335.268 445.102 337.817 443.197 339.985 440.854C342.153 438.451 343.852 435.727 345.082 432.68C346.371 429.574 347.016 426.381 347.016 423.1ZM408.856 351.293C408.856 353.52 408.416 355.6 407.538 357.533C406.717 359.467 405.575 361.166 404.11 362.631C402.645 364.037 400.916 365.18 398.924 366.059C396.991 366.879 394.911 367.289 392.684 367.289C390.457 367.289 388.348 366.879 386.356 366.059C384.422 365.18 382.723 364.037 381.258 362.631C379.852 361.166 378.709 359.467 377.83 357.533C377.01 355.6 376.6 353.52 376.6 351.293C376.6 349.125 377.01 347.074 377.83 345.141C378.709 343.148 379.852 341.449 381.258 340.043C382.723 338.578 384.422 337.436 386.356 336.615C388.348 335.736 390.457 335.297 392.684 335.297C394.911 335.297 396.991 335.736 398.924 336.615C400.916 337.436 402.645 338.578 404.11 340.043C405.575 341.449 406.717 343.148 407.538 345.141C408.416 347.074 408.856 349.125 408.856 351.293ZM404.725 471H380.555V376.869H404.725V471ZM508.661 471H502.86L493.544 458.08C491.259 460.131 488.827 462.064 486.249 463.881C483.729 465.639 481.063 467.191 478.251 468.539C475.438 469.828 472.538 470.854 469.55 471.615C466.62 472.377 463.632 472.758 460.585 472.758C453.964 472.758 447.723 471.527 441.864 469.066C436.063 466.547 430.966 463.09 426.571 458.695C422.235 454.242 418.807 448.998 416.288 442.963C413.768 436.869 412.509 430.248 412.509 423.1C412.509 416.01 413.768 409.418 416.288 403.324C418.807 397.23 422.235 391.957 426.571 387.504C430.966 383.051 436.063 379.564 441.864 377.045C447.723 374.525 453.964 373.266 460.585 373.266C462.694 373.266 464.862 373.441 467.089 373.793C469.374 374.145 471.571 374.73 473.68 375.551C475.848 376.312 477.87 377.338 479.745 378.627C481.62 379.916 483.202 381.498 484.491 383.373V339.428H508.661V471ZM484.491 423.1C484.491 419.818 483.846 416.654 482.557 413.607C481.327 410.502 479.628 407.777 477.46 405.434C475.292 403.031 472.743 401.127 469.813 399.721C466.942 398.256 463.866 397.523 460.585 397.523C457.304 397.523 454.198 398.109 451.268 399.281C448.397 400.453 445.878 402.152 443.71 404.379C441.6 406.547 439.93 409.213 438.7 412.377C437.47 415.541 436.854 419.115 436.854 423.1C436.854 426.557 437.47 429.838 438.7 432.943C439.93 436.049 441.6 438.773 443.71 441.117C445.878 443.461 448.397 445.307 451.268 446.654C454.198 448.002 457.304 448.676 460.585 448.676C463.866 448.676 466.942 447.973 469.813 446.566C472.743 445.102 475.292 443.197 477.46 440.854C479.628 438.451 481.327 435.727 482.557 432.68C483.846 429.574 484.491 426.381 484.491 423.1ZM611.697 423.1C611.697 430.131 610.437 436.693 607.918 442.787C605.398 448.822 601.97 454.066 597.634 458.52C593.298 462.914 588.201 466.4 582.341 468.979C576.541 471.498 570.3 472.758 563.621 472.758C557 472.758 550.759 471.498 544.9 468.979C539.099 466.4 534.002 462.914 529.607 458.52C525.271 454.066 521.843 448.822 519.324 442.787C516.804 436.693 515.545 430.131 515.545 423.1C515.545 415.951 516.804 409.33 519.324 403.236C521.843 397.143 525.271 391.898 529.607 387.504C534.002 383.051 539.099 379.564 544.9 377.045C550.759 374.525 557 373.266 563.621 373.266C570.3 373.266 576.541 374.467 582.341 376.869C588.201 379.213 593.298 382.582 597.634 386.977C601.97 391.312 605.398 396.557 607.918 402.709C610.437 408.803 611.697 415.6 611.697 423.1ZM587.527 423.1C587.527 419.232 586.882 415.746 585.593 412.641C584.363 409.477 582.664 406.781 580.496 404.555C578.328 402.27 575.779 400.541 572.849 399.369C569.978 398.139 566.902 397.523 563.621 397.523C560.339 397.523 557.234 398.139 554.304 399.369C551.433 400.541 548.914 402.27 546.746 404.555C544.636 406.781 542.966 409.477 541.736 412.641C540.505 415.746 539.89 419.232 539.89 423.1C539.89 426.732 540.505 430.102 541.736 433.207C542.966 436.312 544.636 439.008 546.746 441.293C548.914 443.578 551.433 445.395 554.304 446.742C557.234 448.031 560.339 448.676 563.621 448.676C566.902 448.676 569.978 448.061 572.849 446.83C575.779 445.6 578.328 443.871 580.496 441.645C582.664 439.418 584.363 436.723 585.593 433.559C586.882 430.395 587.527 426.908 587.527 423.1ZM714.135 423.1C714.135 430.131 712.875 436.693 710.356 442.787C707.836 448.822 704.409 454.066 700.073 458.52C695.737 462.914 690.639 466.4 684.78 468.979C678.979 471.498 672.739 472.758 666.059 472.758C659.438 472.758 653.198 471.498 647.338 468.979C641.538 466.4 636.44 462.914 632.045 458.52C627.709 454.066 624.282 448.822 621.762 442.787C619.243 436.693 617.983 430.131 617.983 423.1C617.983 415.951 619.243 409.33 621.762 403.236C624.282 397.143 627.709 391.898 632.045 387.504C636.44 383.051 641.538 379.564 647.338 377.045C653.198 374.525 659.438 373.266 666.059 373.266C672.739 373.266 678.979 374.467 684.78 376.869C690.639 379.213 695.737 382.582 700.073 386.977C704.409 391.312 707.836 396.557 710.356 402.709C712.875 408.803 714.135 415.6 714.135 423.1ZM689.965 423.1C689.965 419.232 689.321 415.746 688.032 412.641C686.801 409.477 685.102 406.781 682.934 404.555C680.766 402.27 678.217 400.541 675.288 399.369C672.416 398.139 669.34 397.523 666.059 397.523C662.778 397.523 659.672 398.139 656.743 399.369C653.871 400.541 651.352 402.27 649.184 404.555C647.075 406.781 645.405 409.477 644.174 412.641C642.944 415.746 642.329 419.232 642.329 423.1C642.329 426.732 642.944 430.102 644.174 433.207C645.405 436.312 647.075 439.008 649.184 441.293C651.352 443.578 653.871 445.395 656.743 446.742C659.672 448.031 662.778 448.676 666.059 448.676C669.34 448.676 672.416 448.061 675.288 446.83C678.217 445.6 680.766 443.871 682.934 441.645C685.102 439.418 686.801 436.723 688.032 433.559C689.321 430.395 689.965 426.908 689.965 423.1ZM744.377 471H720.207V339.428H744.377V422.396L780.148 377.045H807.746L776.545 416.244L807.746 471H780.148L761.076 436.811L744.377 458.959V471Z" fill="#1C1C1C"/>
</svg>
