<svg width="1080" height="810" viewBox="0 0 1080 810" fill="none" xmlns="http://www.w3.org/2000/svg">
<rect width="1080" height="810" fill="#F5F5F5"/>
<path d="M545.184 405.1C545.184 382.37 545.184 359.634 545.184 336.894C545.184 334.039 545.228 334 548.352 334H607.69C611.269 334 611.278 334 611.278 337.122V473.124C611.278 476.329 611.278 476.317 607.787 476.317H548.454C545.245 476.317 545.192 476.29 545.192 473.305C545.192 450.575 545.192 427.84 545.192 405.1H545.184ZM582.695 405.163C582.695 391.829 582.695 378.497 582.695 365.166C582.695 359.11 583.365 360.04 576.777 359.985C573.97 359.962 573.824 360.115 573.824 362.686C573.824 390.205 573.824 417.724 573.824 445.242C573.824 451.062 573.039 450.273 579.614 450.332C582.553 450.356 582.704 450.222 582.704 447.521C582.695 433.404 582.687 419.285 582.681 405.163H582.695Z" fill="#1C1C1C"/>
<path d="M468.793 405.18C468.793 382.448 468.793 359.712 468.793 336.974C468.793 334.037 468.828 334.018 472.129 334.018C479.334 334.018 486.542 334.018 493.753 334.018C496.931 334.018 497.028 334.108 497.028 336.848C497.028 364.183 497.028 391.518 497.028 418.853C497.028 422.358 497.028 422.366 500.845 422.37C506.401 422.37 505.903 422.855 505.903 417.792C505.903 390.92 505.903 364.049 505.903 337.179C505.903 334.025 505.903 334.025 509.46 334.025C516.741 334.025 524.021 334.025 531.3 334.025C534.433 334.025 534.495 334.089 534.495 336.907C534.495 364.505 534.495 392.103 534.495 419.701C534.495 437.636 534.495 455.572 534.495 473.508C534.495 476.268 534.349 476.351 531.242 476.343C523.815 476.323 516.388 476.343 508.961 476.319C505.986 476.319 505.911 476.248 505.907 473.524C505.907 465.966 505.845 458.412 505.907 450.858C505.929 449.001 505.272 448.264 503.131 448.315C496.11 448.493 497.05 447.527 497.01 453.752C496.966 460.454 496.948 467.157 497.046 473.859C497.072 475.759 496.304 476.37 494.217 476.351C486.715 476.272 479.212 476.327 471.71 476.327C468.908 476.327 468.784 476.217 468.78 473.603C468.774 450.789 468.778 427.981 468.793 405.18Z" fill="#1C1C1C"/>
<path d="M457.702 432.971C457.702 446.444 457.702 459.914 457.702 473.382C457.702 476.307 457.702 476.3 454.343 476.3L394.992 476.323C392.19 476.323 392 476.173 392 473.642C392 458.135 392 442.628 392 427.12C392 424.412 392.102 424.317 395.089 424.313C402.518 424.313 409.945 424.313 417.371 424.313C420.072 424.313 420.217 424.459 420.222 426.915C420.222 433.815 420.222 440.714 420.222 447.618C420.222 450.176 420.398 450.354 423.192 450.322C429.842 450.243 429.079 451.111 429.101 445.106C429.127 436.172 429.101 427.235 429.101 418.297C429.101 415.659 428.955 415.537 425.954 415.537L394.851 415.569C392.168 415.569 392.013 415.443 392.009 412.975C392.009 387.545 392.009 362.116 392.009 336.687C392.009 334.132 392.154 334.014 394.996 334.014H454.348C457.693 334.014 457.702 334.014 457.702 336.951C457.702 350.487 457.702 364.023 457.702 377.559C457.702 380.433 457.649 380.476 454.555 380.476H432.269C429.18 380.476 429.114 380.421 429.109 377.567C429.109 372.576 429.109 367.58 429.109 362.585C429.109 360.082 428.933 359.956 426.06 359.963C425.031 360.011 424 360.011 422.971 359.963C420.791 359.758 420.182 360.665 420.195 362.491C420.266 370.704 420.266 378.918 420.195 387.131C420.195 389.016 420.914 389.651 423.019 389.639C433.465 389.568 443.907 389.603 454.352 389.607C457.684 389.607 457.706 389.635 457.706 392.552C457.721 406.025 457.719 419.498 457.702 432.971Z" fill="#1C1C1C"/>
<path d="M621.982 405.186C621.982 382.391 621.982 359.596 621.982 336.803C621.982 334.075 622.066 334.024 625.045 334.02L683.739 334C687.711 334 687.711 334 687.711 337.611V444.986C687.711 448.318 687.711 448.325 683.902 448.325C673.829 448.325 663.755 448.325 653.682 448.325C650.729 448.325 650.592 448.448 650.592 451.148C650.592 458.639 650.619 466.13 650.592 473.621C650.592 476.179 650.46 476.282 647.596 476.29C640.097 476.29 632.594 476.29 625.089 476.29C622.053 476.29 621.969 476.239 621.965 473.562C621.974 450.774 621.98 427.982 621.982 405.186ZM659.494 391.206C659.494 382.6 659.529 373.993 659.494 365.39C659.463 359.201 660.42 360.072 653.395 359.946C651.272 359.906 650.588 360.588 650.597 362.461C650.65 380.656 650.597 398.855 650.65 417.049C650.65 423.066 649.564 422.313 656.621 422.364C659.308 422.364 659.498 422.202 659.498 419.778C659.489 410.252 659.48 400.729 659.472 391.206H659.494Z" fill="#1C1C1C"/>
<rect x="659.004" y="456.541" width="28.6216" height="19.6558" rx="2" fill="#1C1C1C"/>
</svg>
