<svg width="1080" height="810" viewBox="0 0 1080 810" fill="none" xmlns="http://www.w3.org/2000/svg">
<rect width="1080" height="810" fill="#F5F5F5"/>
<g clip-path="url(#clip0_447_1238)">
<path d="M338.133 441.516H347.889L359.295 377.218H384.03L368.365 466.194H309L333.46 328H358.196L355.585 342.806H390.077L385.679 367.484H351.187L338.133 441.516Z" fill="#1C1C1C"/>
<path d="M437.623 466.194H377.709L399.421 342.807H458.786L443.67 431.645H409.315L407.391 441.516H442.021L437.623 466.194ZM430.203 367.484H420.446L413.438 406.968H423.469L430.203 367.484Z" fill="#1C1C1C"/>
<path d="M518.013 402.032L506.882 466.194H482.147L488.88 426.71H479.124L472.253 466.194H447.518L471.978 328H496.851L489.705 367.484H499.462L503.996 342.806H528.869L520.212 392.161H485.857L483.933 402.032H518.013Z" fill="#1C1C1C"/>
<path d="M545.908 441.516H556.352L567.758 377.218H592.493L576.827 466.194H516.775L541.236 328H565.971L563.36 342.806H597.577L593.18 367.484H558.963L545.908 441.516Z" fill="#1C1C1C"/>
<path d="M655.843 406.968H621.488L619.564 416.839H653.919L645.399 466.194H620.664L625.061 441.516H615.304L611.319 466.194H586.584L608.296 342.807H667.661L655.843 406.968ZM635.642 382.839L637.978 368.032H628.084L625.061 382.839H635.642Z" fill="#1C1C1C"/>
<path d="M673.57 362.548H698.305L680.028 466.194H655.293L673.57 362.548ZM680.028 328H705.038L700.504 352.677H675.081L680.028 328Z" fill="#1C1C1C"/>
<path d="M712.048 481H687.312L711.636 342.807H771L749.288 466.194H714.659L712.048 481ZM718.919 441.516H728.813L741.868 367.484H731.973L718.919 441.516Z" fill="#1C1C1C"/>
</g>
<defs>
<clipPath id="clip0_447_1238">
<rect width="462" height="153" fill="white" transform="translate(309 328)"/>
</clipPath>
</defs>
</svg>
