<svg width="1080" height="810" viewBox="0 0 1080 810" fill="none" xmlns="http://www.w3.org/2000/svg">
<rect width="1080" height="810" fill="#080808"/>
<path d="M569.637 390.897V390.03C569.672 385.478 569.705 380.927 569.735 376.375C569.749 375.928 569.705 375.481 569.604 375.045C569.472 374.449 569.155 373.909 568.699 373.504C568.242 373.098 567.67 372.847 567.062 372.785C566.774 372.741 566.482 372.719 566.19 372.72C561.709 372.72 557.226 372.72 552.74 372.72C552.111 372.682 551.482 372.801 550.91 373.068C550.363 373.338 549.906 373.762 549.595 374.287C549.284 374.813 549.133 375.417 549.158 376.027C549.158 377.529 549.158 379.031 549.158 380.53V381.307C548.868 381.16 548.655 381.058 548.446 380.947L534.505 373.51C533.33 372.839 531.981 372.536 530.633 372.642C529.423 372.742 528.277 373.224 527.358 374.017C523.377 377.469 519.393 380.916 515.406 384.357C509.807 389.197 504.213 394.041 498.624 398.887C498.298 399.189 497.865 399.35 497.421 399.334C481.212 399.334 465 399.334 448.786 399.334H448V329.885H632.54H632.606L632.671 329.905C632.811 330.372 632.864 398.187 632.716 399.256C632.536 399.256 632.344 399.301 632.152 399.301C616.614 399.301 601.075 399.301 585.534 399.301C585.225 399.305 584.919 399.235 584.642 399.096C579.777 396.468 574.915 393.825 570.058 391.168C569.919 391.09 569.792 391 569.637 390.897Z" fill="#F5F5F5"/>
<path d="M554.049 391.014V379.021H563.5C563.464 384.195 563.427 389.365 563.39 394.575C564.053 394.952 564.692 395.32 565.338 395.676C571.462 399.049 577.589 402.418 583.721 405.782C583.93 405.873 584.104 406.027 584.219 406.224C584.334 406.421 584.383 406.649 584.359 406.875C584.343 423.311 584.343 439.743 584.359 456.173V456.992H498.861C498.861 456.738 498.833 456.501 498.833 456.263V448.118C498.833 434.662 498.833 421.209 498.833 407.759C498.819 407.519 498.863 407.28 498.962 407.061C499.061 406.842 499.212 406.651 499.401 406.503C509.831 397.462 520.258 388.412 530.681 379.353C530.866 379.193 531.054 379.038 531.271 378.857L554.049 391.014Z" fill="#F5F5F5"/>
<path d="M584.208 433.508H498.682V486H584.208V433.508Z" fill="#F5F5F5"/>
<path d="M632.629 324H448V338.481H632.629V324Z" fill="#F5F5F5"/>
</svg>
