<svg width="1080" height="810" viewBox="0 0 1080 810" fill="none" xmlns="http://www.w3.org/2000/svg">
<rect width="1080" height="810" fill="#080808"/>
<path d="M413.571 335.25H439.221V474H385.221V335.25H411.021V448.35H413.571V335.25ZM441.911 363.6H467.561V474H441.911V363.6ZM441.911 335.25H467.561V361.05H441.911V335.25ZM496.129 363.6H524.329V474H470.329V335.25H496.129V363.6ZM496.129 389.4V448.35H498.679V389.4H496.129ZM527.018 335.25H552.668V474H527.018V335.25ZM555.436 363.6H581.086V474H555.436V363.6ZM555.436 335.25H581.086V361.05H555.436V335.25ZM583.854 335.25H637.854V389.25H612.204V361.05H609.654V391.8H637.854V474H583.854V420.15H609.654V448.35H612.204V417.6H583.854V335.25ZM640.544 335.25H694.544V389.25H668.894V361.05H666.344V391.8H694.544V474H640.544V420.15H666.344V448.35H668.894V417.6H640.544V335.25Z" fill="white"/>
</svg>
