<svg width="1080" height="810" viewBox="0 0 1080 810" fill="none" xmlns="http://www.w3.org/2000/svg">
<rect width="1080" height="810" fill="#080808"/>
<path d="M673.054 407.94C673.054 409.688 673.054 411.403 672.956 413.135C672.956 413.756 672.956 414.377 672.874 414.998C672.76 417.203 672.58 419.393 672.368 421.533C672.368 422.203 672.221 422.856 672.139 423.526C671.877 425.912 671.534 428.264 671.126 430.617C671.012 431.336 670.881 432.055 670.75 432.774C670.26 435.388 669.688 437.985 669.116 440.55C668.904 441.351 668.708 442.184 668.495 442.952C667.7 445.915 666.802 448.834 665.8 451.709C665.473 452.64 665.146 453.555 664.803 454.47C663.48 458.032 662.026 461.528 660.408 464.943C659.869 466.103 659.297 467.263 658.774 468.407C656.173 473.523 653.253 478.473 650.034 483.225C648.541 485.403 646.989 487.549 645.377 489.662C638.268 498.854 630.004 507.091 620.789 514.169C618.697 515.781 616.552 517.333 614.352 518.825C609.611 522.054 604.666 524.974 599.549 527.566L596.086 529.2C592.677 530.801 589.186 532.261 585.613 533.579L582.852 534.575C579.977 535.555 577.052 536.449 574.079 537.255C573.294 537.483 572.494 537.696 571.677 537.892C569.128 538.529 566.53 539.084 563.916 539.526L561.743 539.901C559.407 540.31 557.038 540.637 554.669 540.914L552.676 541.143C550.487 541.355 548.297 541.519 546.141 541.633L544.278 541.715C542.644 541.715 540.831 541.813 539.099 541.813H536.207C534.247 541.813 532.302 541.731 530.375 541.568L528.741 541.453C526.878 541.323 525.032 541.143 523.202 540.931L521.568 540.735C519.788 540.506 518.039 540.244 516.291 539.934L514.772 539.673C513.138 539.362 511.39 539.019 509.723 538.66L508.269 538.333C506.635 537.941 505.002 537.532 503.368 537.091L501.979 536.716C500.411 536.258 498.859 535.784 497.323 535.294L495.983 534.853C494.48 534.346 492.993 533.807 491.507 533.219L490.232 532.729C488.838 532.326 487.406 531.847 485.935 531.291L484.694 530.752C483.305 530.131 481.916 529.494 480.544 528.824C480.152 528.628 479.743 528.449 479.351 528.236C478.011 527.583 476.672 526.88 475.348 526.178L474.205 525.54C472.898 524.821 471.623 524.086 470.349 523.335L469.238 522.665C467.974 521.892 466.733 521.107 465.513 520.312L464.435 519.61C463.226 518.793 462.033 517.976 460.857 517.126L459.827 516.375C458.651 515.525 457.507 514.741 456.364 513.761L455.383 512.976C454.256 512.094 453.145 511.179 452.034 510.232L451.087 509.415C450.008 508.484 448.93 507.52 447.819 506.556L446.904 505.706C445.548 504.415 444.208 503.108 442.901 501.769L442.052 500.903C441.071 499.873 440.091 498.811 439.127 497.75L438.294 496.818C437.346 495.74 436.415 494.645 435.484 493.551L434.7 492.587C433.785 491.459 432.886 490.332 432.02 489.188L431.252 488.175C430.386 487.015 429.537 485.839 428.72 484.646L427.985 483.601C427.157 482.392 426.356 481.166 425.583 479.925C425.338 479.565 425.109 479.206 424.897 478.83C424.113 477.588 423.345 476.33 422.609 475.04L421.972 473.912C421.237 472.622 420.518 471.298 419.832 469.975C419.62 469.583 419.424 469.191 419.228 468.799C418.541 467.459 417.871 466.103 417.234 464.731C417.038 464.322 416.859 463.914 416.679 463.505C416.042 462.116 415.421 460.695 414.833 459.274C414.653 458.849 414.49 458.44 414.326 458.016C413.738 456.562 413.182 455.091 412.692 453.621L412.219 452.297C411.696 450.794 411.189 449.275 410.715 447.739C410.585 447.282 410.438 446.824 410.307 446.367C409.839 444.798 409.398 443.213 408.984 441.612C408.869 441.139 408.739 440.665 408.624 440.191C408.232 438.557 407.856 436.923 407.513 435.29L407.219 433.803C406.876 432.169 406.582 430.372 406.321 428.64C406.239 428.117 406.157 427.611 406.092 427.006C405.83 425.209 405.618 423.412 405.422 421.598L405.275 419.965C405.112 418.086 404.981 416.174 404.883 414.279C404.883 413.707 404.883 413.135 404.883 412.645C404.883 411.126 404.883 409.606 404.883 408.071V406.633C404.883 406.028 404.883 405.44 404.883 404.836C404.883 402.657 404.981 400.533 405.177 398.464C405.177 397.81 405.275 397.173 405.34 396.536C405.536 394.232 405.781 391.961 406.092 389.707L406.37 387.517C406.762 385.018 407.203 382.616 407.726 380.1C407.889 379.332 408.052 378.581 408.232 377.813C408.875 375.035 409.599 372.312 410.405 369.644C410.666 368.778 410.928 367.912 411.206 367.062C412.235 363.795 413.395 360.658 414.669 357.521C415.078 356.492 415.519 355.479 415.96 354.466C417.759 350.329 419.771 346.288 421.989 342.359C422.806 340.905 423.622 339.484 424.521 338.062C435.617 319.944 450.846 304.71 468.96 293.607C470.382 292.741 471.803 291.891 473.257 291.075C477.189 288.869 481.23 286.862 485.364 285.062C486.376 284.621 487.406 284.18 488.435 283.772C491.55 282.497 494.725 281.343 497.96 280.308L500.541 279.507C503.254 278.69 505.977 277.966 508.71 277.334L510.981 276.828C513.432 276.305 515.883 275.864 518.399 275.472L520.49 275.178C522.745 274.867 525.032 274.606 527.319 274.426L529.247 274.263C531.349 274.121 533.473 274.023 535.619 273.969H537.433H538.854C540.39 273.969 541.909 273.969 543.429 273.969H545.144C547.039 274.067 548.951 274.197 550.83 274.361L552.463 274.508C554.277 274.688 556.074 274.916 557.871 275.161L559.505 275.406C561.237 275.668 562.969 275.962 564.668 276.305C565.174 276.387 565.664 276.485 566.155 276.599C567.788 276.942 569.422 277.302 571.056 277.71L572.526 278.053C574.128 278.467 575.712 278.908 577.281 279.377L578.653 279.785C580.173 280.259 581.708 280.765 583.211 281.288L584.535 281.762C586.005 282.301 587.476 282.857 588.93 283.396L590.188 283.919C591.609 284.507 593.031 285.128 594.419 285.748L595.645 286.32C597.017 286.957 598.373 287.627 599.713 288.313L600.889 288.918C602.212 289.604 603.536 290.323 604.827 291.058L605.954 291.695C607.245 292.431 608.503 293.199 609.761 293.983L610.839 294.653C612.081 295.437 613.29 296.286 614.499 297.071L615.561 297.789C616.748 298.617 617.924 299.467 619.09 300.338L620.086 301.106C621.246 301.972 622.373 302.871 623.501 303.769L624.465 304.57C625.576 305.485 626.67 306.432 627.732 307.38L628.664 308.213C629.726 309.177 630.771 310.157 631.817 311.138L632.617 311.922C633.957 313.229 635.264 314.569 636.555 315.925L637.388 316.84C638.368 317.885 639.332 318.963 640.264 320.107L641.08 321.055C642.017 322.144 642.932 323.233 643.825 324.322L644.609 325.319C645.492 326.446 646.374 327.606 647.223 328.783L647.975 329.812C648.808 330.988 649.609 332.181 650.458 333.39L651.161 334.468C651.956 335.699 652.74 336.941 653.514 338.193C653.742 338.553 653.955 338.928 654.183 339.304C654.935 340.562 655.67 341.853 656.389 343.16L657.01 344.304C657.729 345.627 658.415 346.967 659.085 348.306L659.673 349.499C660.326 350.871 660.98 352.26 661.585 353.649C661.781 354.057 661.96 354.482 662.14 354.891C662.745 356.312 663.333 357.75 663.888 359.204C664.068 359.629 664.231 360.053 664.395 360.478C664.95 361.965 665.473 363.452 666.028 364.955C666.192 365.396 666.339 365.853 666.47 366.294C666.981 367.83 667.455 369.382 667.891 370.951L668.283 372.339C668.724 373.973 669.133 375.607 669.508 377.241C669.623 377.731 669.737 378.205 669.835 378.695C670.206 380.361 670.549 382.044 670.864 383.743C670.864 384.25 671.044 384.756 671.126 385.263C671.42 387.011 671.681 388.775 671.91 390.54C671.992 391.063 672.057 391.586 672.106 392.174C672.335 394.004 672.515 395.85 672.645 397.712C672.645 398.251 672.645 398.823 672.76 399.346C672.869 401.296 672.95 403.24 673.005 405.179C673.005 405.767 673.005 406.355 673.005 406.943L673.054 407.94Z" fill="#F4F0EB"/>
<path d="M474.156 291.875L422.871 343.159L421.973 342.261C422.79 340.823 423.606 339.385 424.505 337.964L468.961 293.508L472.375 290.094L473.257 290.992L474.156 291.875Z" fill="white"/>
<path d="M414.654 357.44L415.553 358.322L489.319 284.589L488.42 283.707L487.571 282.775L485.398 284.965L415.945 354.368L414.654 357.44Z" fill="white"/>
<path d="M410.406 369.546L411.288 370.428L501.425 280.292L500.543 279.41L499.644 278.527L498.01 280.161L411.19 366.981L410.406 369.546Z" fill="white"/>
<path d="M510.181 275.848L406.844 379.185L408.608 380.982L511.946 277.628L510.181 275.848Z" fill="white"/>
<path d="M521.453 275.976L406.956 390.456L406.074 389.574C406.156 388.871 406.27 388.185 406.368 387.483L519.672 274.195L520.57 275.078L521.453 275.976Z" fill="white"/>
<path d="M530.211 275.062L406.042 399.23L405.16 398.348L405.307 396.42L528.414 273.281L529.312 274.163L530.211 275.062Z" fill="white"/>
<path d="M538.397 274.785L405.716 407.4L404.834 406.501C404.834 405.897 404.834 405.309 404.834 404.704L535.701 273.87L536.583 272.955L538.397 274.785Z" fill="white"/>
<path d="M546.109 274.867L405.88 415.112L404.998 414.229C404.998 413.658 404.998 413.086 404.998 412.596L543.511 273.903L544.328 273.086L546.109 274.867Z" fill="white"/>
<path d="M553.428 275.406L406.387 422.447L405.504 421.549C405.504 421.01 405.39 420.47 405.357 419.915L551.647 273.625L553.428 275.406Z" fill="white"/>
<path d="M558.607 274.508L405.504 427.611L407.285 429.391L560.388 276.289L558.607 274.508Z" fill="white"/>
<path d="M565.255 275.699L406.777 434.259L408.558 436.04L567.118 277.562L565.255 275.699Z" fill="white"/>
<path d="M571.629 277.186L408.168 440.647L409.949 442.411L573.41 279.032L571.629 277.186Z" fill="white"/>
<path d="M577.754 278.918L409.914 446.758L411.679 448.538L579.518 280.699L577.754 278.918Z" fill="white"/>
<path d="M583.619 280.896L411.875 452.641L413.656 454.503L585.4 282.661L583.619 280.896Z" fill="white"/>
<path d="M589.29 283.086L414.049 458.294L415.83 460.075L591.054 284.85L589.29 283.086Z" fill="white"/>
<path d="M594.73 285.486L416.467 463.75L418.248 465.53L596.511 287.251L594.73 285.486Z" fill="white"/>
<path d="M599.991 288.066L419.064 468.993L420.845 470.839L601.772 289.847L599.991 288.066Z" fill="white"/>
<path d="M605.055 290.861L421.842 474.108L423.623 475.889L606.836 292.626L605.055 290.861Z" fill="white"/>
<path d="M609.94 293.818L424.814 479.009L426.595 480.79L611.737 295.599L609.94 293.818Z" fill="white"/>
<path d="M614.647 296.955L427.953 483.665L429.734 485.446L616.428 298.736L614.647 296.955Z" fill="white"/>
<path d="M619.187 300.273L431.301 488.16L433.082 489.924L620.968 302.038L619.187 300.273Z" fill="white"/>
<path d="M623.566 303.752L434.732 492.57L436.513 494.35L625.347 305.516L623.566 303.752Z" fill="white"/>
<path d="M627.781 307.461L438.375 496.785L440.189 498.615L629.562 309.095L627.781 307.461Z" fill="white"/>
<path d="M631.833 311.186L442.166 500.836L443.947 502.617L633.598 312.966L631.833 311.186Z" fill="white"/>
<path d="M635.721 315.139L446.201 504.659L447.982 506.44L637.502 316.92L635.721 315.139Z" fill="white"/>
<path d="M639.513 319.273L450.254 508.418L452.035 510.199L641.146 321.054L639.513 319.273Z" fill="white"/>
<path d="M643.009 323.555L454.551 512.013L456.332 513.794L644.773 325.336L643.009 323.555Z" fill="white"/>
<path d="M646.407 328.014L458.994 515.41L460.775 517.191L648.171 329.778L646.407 328.014Z" fill="white"/>
<path d="M649.627 332.621L463.619 518.645L465.4 520.409L651.407 334.402L649.627 332.621Z" fill="white"/>
<path d="M652.68 337.426L468.404 521.701L470.185 523.482L654.461 339.19L652.68 337.426Z" fill="white"/>
<path d="M655.571 342.391L473.387 524.575L475.151 526.388L657.352 344.171L655.571 342.391Z" fill="white"/>
<path d="M658.268 347.537L478.551 527.254L480.332 529.035L660.049 349.318L658.268 347.537Z" fill="white"/>
<path d="M660.751 352.881L483.877 529.788L485.658 531.553L662.549 354.662L660.751 352.881Z" fill="white"/>
<path d="M663.073 358.436L489.434 532.092L491.198 533.856L664.854 360.216L663.073 358.436Z" fill="white"/>
<path d="M665.163 364.186L495.248 534.1L497.029 535.881L666.943 365.966L665.163 364.186Z" fill="white"/>
<path d="M667.026 370.182L501.18 536.044L502.944 537.825L668.807 371.962L667.026 370.182Z" fill="white"/>
<path d="M668.643 376.408L507.404 537.647L509.185 539.461L670.424 378.222L668.643 376.408Z" fill="white"/>
<path d="M671.143 385.31L515.687 540.782L513.906 539.001L669.999 382.908L670.881 383.807C670.979 384.248 671.061 384.803 671.143 385.31Z" fill="white"/>
<path d="M672.189 392.174L523.17 541.094L522.468 541.781L521.585 540.898L520.703 540.016L671.012 389.707L671.911 390.589L672.189 392.174Z" fill="white"/>
<path d="M672.776 399.379L529.591 542.565L528.708 541.666L527.826 540.784L671.78 396.83L672.678 397.712L672.776 399.379Z" fill="white"/>
<path d="M673.053 406.959L537.089 542.923L535.324 541.093L672.187 404.328L673.069 405.21C673.037 405.799 673.037 406.37 673.053 406.959Z" fill="white"/>
<path d="M672.956 413.135C672.956 413.756 672.956 414.377 672.874 414.997L545.977 541.878L545.013 542.842L544.115 541.96L543.232 541.077L672.057 412.236L672.956 413.135Z" fill="white"/>
<path d="M672.367 421.564C672.367 422.234 672.22 422.887 672.138 423.557L553.443 542.269L551.662 540.488L671.468 420.682L672.367 421.564Z" fill="white"/>
<path d="M670.243 429.752L560.779 539.216L562.56 540.981L672.024 431.516L670.243 429.752Z" fill="white"/>
<path d="M668.168 439.684L570.68 537.172L572.461 538.953L669.933 441.432L668.168 439.684Z" fill="white"/>
<path d="M664.852 450.859L581.855 533.856L583.62 535.637L666.617 452.64L664.852 450.859Z" fill="white"/>
<path d="M659.46 464.092L595.072 528.48L596.853 530.244L661.241 465.938L659.46 464.092Z" fill="white"/>
<path d="M649.037 482.375L613.371 518.041L615.152 519.822L650.834 484.14L649.037 482.375Z" fill="white"/>
<path d="M539.492 554.001C529.373 553.995 519.281 552.977 509.365 550.962C480.718 545.08 454.426 530.922 433.749 510.241C413.071 489.561 398.916 463.267 393.039 434.619C388.987 414.739 388.987 394.245 393.039 374.365C398.921 345.721 413.078 319.432 433.755 298.755C454.432 278.078 480.721 263.921 509.365 258.039C529.245 253.987 549.739 253.987 569.619 258.039C598.259 263.934 624.543 278.094 645.221 298.769C665.898 319.444 680.062 345.726 685.962 374.365C690.013 394.245 690.013 414.739 685.962 434.619C680.067 463.262 665.905 489.549 645.227 510.227C624.549 530.905 598.262 545.067 569.619 550.962C559.703 552.977 549.611 553.995 539.492 554.001ZM539.492 261.764C511.264 261.764 483.669 270.134 460.198 285.817C436.727 301.499 418.433 323.789 407.63 349.869C396.827 375.948 393.999 404.645 399.505 432.331C405.011 460.017 418.603 485.449 438.562 505.41C458.521 525.372 483.952 538.967 511.637 544.476C539.323 549.985 568.02 547.161 594.1 536.36C620.181 525.56 642.473 507.269 658.158 483.799C673.843 460.33 682.217 432.737 682.22 404.508C682.177 366.668 667.126 330.389 640.368 303.632C613.611 276.875 577.333 261.823 539.492 261.78V261.764Z" fill="#F4F0EB"/>
<path d="M495.215 442.152H472.93V467.705H495.215V442.152Z" fill="#080808"/>
<path d="M583.785 341.312V391.568H509.022C499.693 391.568 495.217 385.343 495.217 378.955V341.378H473.111V384.314C473.111 406.239 484.335 417.121 510.574 417.121H583.785V467.768H605.89L606.053 341.378L583.785 341.312Z" fill="#080808"/>
</svg>
