<svg width="1080" height="810" viewBox="0 0 1080 810" fill="none" xmlns="http://www.w3.org/2000/svg">
<rect width="1080" height="810" fill="#F5F5F5"/>
<path d="M548.632 487H622V408.061H537.35L548.632 487ZM593.754 436.365V458.732H572.881L569.63 436.365H593.754Z" fill="#1C1C1C"/>
<path d="M622 351.063V323H548.442L537.152 401.852H622V373.716H569.491L572.793 351.063H622Z" fill="#1C1C1C"/>
<path d="M530.965 404.941L531.383 402.013L542.68 323H458V351.341V373.986V402.028V407.885V487H542.687L531.368 407.863L530.965 404.941ZM510.385 351.341L504.623 390.943H486.151V351.341H510.385ZM486.224 458.498L486.129 419.072H504.623L510.378 458.498H486.224Z" fill="#1C1C1C"/>
</svg>
