<svg width="1080" height="810" viewBox="0 0 1080 810" fill="none" xmlns="http://www.w3.org/2000/svg">
<rect width="1080" height="810" fill="#F5F5F5"/>
<path d="M331.26 382.758V397.406H345.908V382.758H331.26ZM301.963 456V360.785H375.205V397.406L364.219 408.393L375.205 419.379V456H301.963ZM331.26 434.027H345.908V419.379H331.26V434.027ZM382.529 456V360.785H411.826V434.027H426.475V419.379H455.771V456H382.529ZM492.393 434.027H507.041V382.758H492.393V434.027ZM463.096 456V360.785H536.338V456H463.096ZM587.607 382.758H572.959V434.027H587.607V419.379H616.904V456H543.662V360.785H616.904V397.406H587.607V382.758ZM653.525 419.379V456H624.229V360.785H653.525V397.406H668.174V360.785H697.471V397.406L686.484 408.393L697.471 419.379V456H668.174V419.379H653.525ZM734.092 434.027H748.74V382.758H734.092V434.027ZM704.795 456V360.785H756.064L778.037 382.758V456H704.795Z" fill="#1C1C1C"/>
</svg>
