<svg width="1080" height="810" viewBox="0 0 1080 810" fill="none" xmlns="http://www.w3.org/2000/svg">
<rect width="1080" height="810" fill="#F5F5F5"/>
<g clip-path="url(#clip0_447_1229)">
<path d="M449.314 428.75L429.073 449.224L385 405L429.073 360.94L449.314 381.25L425.482 405L449.314 428.75ZM456.006 374.534L435.765 354.224L479.675 310L523.748 354.224L503.344 374.534L479.675 350.621L456.006 374.534ZM503.344 435.466L523.748 455.94L479.675 500L435.765 455.94L456.006 435.466L479.675 459.379L503.344 435.466Z" fill="#1C1C1C"/>
<path d="M568.964 428.75L548.234 449.224L504.65 405L548.234 360.94L568.474 381.25L545.132 405L568.964 428.75ZM575.657 374.534L555.416 354.224L599.326 310L643.398 354.224L622.994 374.534L599.326 350.621L575.657 374.534ZM622.994 435.466L643.398 455.94L599.326 500L555.416 455.94L575.657 435.466L599.326 459.379L622.994 435.466ZM629.85 381.25L650.254 360.94L694.001 405L650.091 449.224L629.85 428.75L653.519 405L629.85 381.25Z" fill="#1C1C1C"/>
</g>
<defs>
<clipPath id="clip0_447_1229">
<rect width="309" height="190" fill="white" transform="translate(385 310)"/>
</clipPath>
</defs>
</svg>
