<svg width="1080" height="810" viewBox="0 0 1080 810" fill="none" xmlns="http://www.w3.org/2000/svg">
<rect width="1080" height="810" fill="#F5F5F5"/>
<path d="M569.637 390.897V390.03C569.672 385.478 569.705 380.927 569.735 376.375C569.749 375.928 569.705 375.481 569.604 375.045C569.472 374.449 569.155 373.909 568.699 373.504C568.242 373.098 567.67 372.847 567.062 372.785C566.774 372.741 566.482 372.719 566.19 372.72C561.709 372.72 557.226 372.72 552.74 372.72C552.111 372.682 551.482 372.801 550.91 373.068C550.363 373.338 549.906 373.762 549.595 374.287C549.284 374.813 549.133 375.417 549.158 376.027C549.158 377.529 549.158 379.031 549.158 380.53V381.307C548.868 381.16 548.655 381.058 548.446 380.947L534.505 373.51C533.33 372.839 531.981 372.536 530.633 372.642C529.423 372.742 528.277 373.224 527.358 374.017C523.377 377.469 519.393 380.916 515.406 384.357C509.807 389.197 504.213 394.041 498.624 398.887C498.298 399.189 497.865 399.35 497.421 399.334C481.212 399.334 465 399.334 448.786 399.334H448V329.885H632.54H632.606L632.671 329.905C632.811 330.372 632.864 398.187 632.716 399.256C632.536 399.256 632.344 399.301 632.152 399.301C616.614 399.301 601.075 399.301 585.534 399.301C585.225 399.305 584.919 399.235 584.642 399.096C579.777 396.468 574.915 393.825 570.058 391.168C569.919 391.09 569.792 391 569.637 390.897Z" fill="#1C1C1C"/>
<path d="M554.051 391.014V379.021H563.502C563.466 384.195 563.429 389.365 563.392 394.575C564.055 394.952 564.694 395.32 565.34 395.676C571.464 399.049 577.591 402.418 583.723 405.782C583.932 405.873 584.106 406.027 584.221 406.224C584.336 406.421 584.385 406.649 584.361 406.875C584.345 423.311 584.345 439.743 584.361 456.173V456.992H498.863C498.863 456.738 498.834 456.501 498.834 456.263V448.118C498.834 434.662 498.834 421.209 498.834 407.759C498.821 407.519 498.865 407.28 498.964 407.061C499.063 406.842 499.214 406.651 499.403 406.503C509.833 397.462 520.259 388.412 530.683 379.353C530.868 379.193 531.056 379.038 531.273 378.857L554.051 391.014Z" fill="#1C1C1C"/>
<path d="M584.21 433.508H498.684V486H584.21V433.508Z" fill="#1C1C1C"/>
<path d="M632.629 324H448V338.481H632.629V324Z" fill="#1C1C1C"/>
</svg>
