<svg width="1080" height="810" viewBox="0 0 1080 810" fill="none" xmlns="http://www.w3.org/2000/svg">
<rect width="1080" height="810" fill="#F5F5F5"/>
<path d="M634.192 477C638.399 442.721 642.573 408.646 646.785 374.367H626.23C622.039 408.454 617.834 442.653 613.615 476.962H572.493C576.689 442.737 580.875 408.609 585.081 374.314H564.526C560.324 408.501 556.134 442.624 551.916 476.925H387C392.888 428.916 398.77 380.941 404.644 333H445.776C441.58 367.241 437.395 401.354 433.204 435.66H453.76C457.961 401.445 462.157 367.306 466.369 333.032H507.496C503.305 367.171 499.126 401.273 494.913 435.611H515.463C519.647 401.517 523.846 367.313 528.062 333H693C687.101 381.081 681.214 429.081 675.34 477H634.192Z" fill="#1C1C1C"/>
</svg>
