<svg width="1080" height="810" viewBox="0 0 1080 810" fill="none" xmlns="http://www.w3.org/2000/svg">
<path d="M313 491.167C322.987 444.217 332.993 397.194 343.019 350.098H382.707L373.675 392.916H381.722C384.806 378.67 387.869 364.464 390.983 350.059H430.67C427.865 363.151 425.14 375.906 422.355 388.959L403.118 405.084L415.452 421.189C412.687 434.262 409.921 447.365 407.067 460.885L360.625 492.638L376.54 417.402H368.483C365.37 431.896 362.276 446.232 359.133 460.915L314.134 491.734L313 491.167Z" fill="white"/>
<path d="M690.532 405.105L702.915 421.121C700.197 434.011 697.405 447.266 694.54 460.886L648.049 492.699C653.52 466.851 658.702 442.455 663.964 417.552H655.877L646.527 461.005L600.105 492.689L630.443 350.119H670.091L661.089 392.867H669.136C672.23 378.512 675.293 364.295 678.377 350.02H718.064C715.259 363.132 712.524 375.867 709.729 388.95L690.532 405.105Z" fill="white"/>
<path d="M598.731 460.716H511.09C518.968 423.684 526.776 387 534.634 350.088H622.275C614.387 387.04 606.599 423.734 598.731 460.716ZM569.358 373.57L555.96 436.946H564.037C568.513 415.89 572.989 394.973 577.495 373.57H569.358Z" fill="white"/>
<path d="M460.212 436.858H468.17C469.901 429.144 471.651 421.31 473.472 413.198L514.711 405.244L502.984 460.668H415.303C423.171 423.626 430.969 386.883 438.807 350H478.515C472.377 379.019 466.32 407.73 460.212 436.858Z" fill="white"/>
</svg>
