<svg width="1080" height="810" viewBox="0 0 1080 810" fill="none" xmlns="http://www.w3.org/2000/svg">
<path d="M544.24 464.454C544.24 446.666 544.24 428.875 544.24 411.079C544.24 408.845 544.275 408.814 546.72 408.814H593.155C595.956 408.814 595.963 408.814 595.963 411.258V517.687C595.963 520.195 595.963 520.186 593.231 520.186H546.799C544.289 520.186 544.247 520.164 544.247 517.829C544.247 500.041 544.247 482.25 544.247 464.454H544.24ZM573.595 464.503C573.595 454.069 573.595 443.636 573.595 433.203C573.595 428.464 574.12 429.193 568.964 429.149C566.767 429.131 566.653 429.251 566.653 431.263C566.653 452.798 566.653 474.333 566.653 495.868C566.653 500.422 566.039 499.805 571.184 499.851C573.484 499.869 573.602 499.765 573.602 497.651C573.595 486.604 573.589 475.555 573.584 464.503H573.595Z" fill="#EEEEEE"/>
<path d="M535.881 345.874C535.881 363.614 535.881 381.353 535.881 399.091C535.881 401.337 535.881 401.362 533.422 401.368C527.496 401.368 521.566 401.328 515.64 401.396C513.958 401.415 513.464 400.862 513.478 399.412C513.544 393.448 513.509 387.485 513.502 381.518C513.502 379.623 513.354 379.466 511.257 379.482C505.849 379.525 506.588 378.923 506.557 383.647C506.523 388.892 506.557 394.136 506.557 399.381C506.557 401.263 506.419 401.374 504.288 401.374H487.366C484.476 401.374 484.469 401.374 484.469 398.857C484.469 366.31 484.469 333.762 484.469 301.215C484.469 298.077 484.514 294.939 484.448 291.805C484.421 290.447 485.018 290 486.493 290C502.261 290.031 518.032 290.031 533.805 290C535.739 290 535.908 290.824 535.908 292.194C535.872 310.088 535.862 327.981 535.881 345.874ZM513.506 334.705C513.506 327.918 513.506 321.13 513.506 314.343C513.506 309.628 513.972 310.421 508.982 310.332C506.668 310.298 506.564 310.421 506.564 312.491C506.564 326.684 506.54 340.876 506.564 355.043C506.564 359.702 505.874 359.054 511.178 359.134C513.374 359.168 513.499 359.029 513.502 357.027C513.509 349.596 513.51 342.155 513.506 334.705Z" fill="#EEEEEE"/>
<path d="M484.46 464.517C484.46 446.727 484.46 428.936 484.46 411.142C484.46 408.844 484.487 408.828 487.07 408.828C492.709 408.828 498.349 408.828 503.992 408.828C506.479 408.828 506.555 408.899 506.555 411.043C506.555 432.434 506.555 453.825 506.555 475.217C506.555 477.959 506.555 477.965 509.542 477.969C513.89 477.969 513.5 478.348 513.5 474.387C513.5 453.358 513.5 432.33 513.5 411.303C513.5 408.834 513.5 408.834 516.283 408.834C521.982 408.834 527.679 408.834 533.375 408.834C535.827 408.834 535.875 408.884 535.875 411.09C535.875 432.686 535.875 454.283 535.875 475.88C535.875 489.916 535.875 503.952 535.875 517.987C535.875 520.147 535.761 520.212 533.33 520.206C527.518 520.19 521.705 520.206 515.893 520.187C513.565 520.187 513.507 520.132 513.503 518C513.503 512.085 513.455 506.174 513.503 500.263C513.521 498.809 513.006 498.232 511.331 498.273C505.837 498.411 506.572 497.656 506.541 502.527C506.507 507.772 506.493 513.017 506.569 518.262C506.589 519.749 505.989 520.227 504.355 520.212C498.484 520.15 492.613 520.193 486.742 520.193C484.549 520.193 484.453 520.107 484.449 518.061C484.445 500.208 484.448 482.36 484.46 464.517Z" fill="#EEEEEE"/>
<path d="M424.007 345.709C424.007 328.178 424.007 310.647 424.007 293.115C424.007 290.029 424.007 290.029 427.509 290.029C442.704 290.029 457.899 290.029 473.095 290.029C475.774 290.029 475.778 290.029 475.778 292.423C475.778 304.916 475.812 317.414 475.743 329.9C475.743 331.196 475.253 332.519 474.804 333.778C473.92 336.277 472.78 338.715 472.003 341.229C471.633 342.438 471.602 343.709 471.914 344.931C472.718 347.819 473.923 350.617 474.763 353.499C475.345 355.314 475.672 357.187 475.736 359.074C475.819 372.439 475.781 385.808 475.778 399.182C475.778 401.342 475.747 401.364 473.385 401.367C467.459 401.367 461.529 401.32 455.603 401.395C453.841 401.416 453.344 400.848 453.351 399.324C453.403 386.268 453.223 373.208 453.472 360.142C453.551 355.93 452.75 352.064 450.478 348.492C448.482 345.354 447.943 342.5 450.688 339.477C453.299 336.598 453.544 333.164 453.431 329.573C453.237 323.563 453.382 317.54 453.372 311.53C453.372 309.559 453.23 309.454 451.01 309.426C450.205 309.426 449.4 309.426 448.592 309.426C446.175 309.426 446.106 309.497 446.106 311.712C446.106 333.515 446.106 355.317 446.106 377.12C446.106 384.524 446.106 391.929 446.106 399.334C446.106 401.268 445.978 401.382 443.899 401.382C437.973 401.382 432.043 401.342 426.117 401.398C424.553 401.398 423.997 400.956 424 399.546C424.039 381.607 424.047 363.665 424.024 345.721L424.007 345.709Z" fill="#EEEEEE"/>
<path d="M544.25 345.68C544.25 327.889 544.25 310.097 544.25 292.305C544.25 290.078 544.294 290.047 546.739 290.047C562.335 290.047 577.932 290.047 593.531 290.047C595.896 290.047 595.979 290.115 595.979 292.207C595.979 301.052 595.955 309.897 596.014 318.74C596.014 320.181 595.43 320.609 593.886 320.591C587.96 320.538 582.031 320.529 576.104 320.591C574.464 320.609 573.835 320.125 573.891 318.641C573.984 316.123 573.891 313.6 573.932 311.082C573.956 309.879 573.383 309.404 572.067 309.459C570.917 309.518 569.764 309.518 568.614 309.459C567.077 309.367 566.631 310.012 566.631 311.31C566.657 333.524 566.657 355.738 566.631 377.952C566.631 379.451 567.26 379.914 568.873 379.889C574.744 379.794 573.904 380.528 573.915 375.41C573.942 360.6 573.942 345.791 573.915 330.982C573.915 328.659 573.915 328.665 576.508 328.665C582.207 328.665 587.905 328.646 593.603 328.665C595.872 328.665 595.989 328.779 595.989 330.729C595.989 353.609 595.989 376.492 595.989 399.376C595.989 400.881 595.541 401.455 593.755 401.449C577.929 401.4 562.102 401.4 546.273 401.449C544.308 401.449 544.201 400.595 544.201 399.249C544.229 381.408 544.235 363.565 544.218 345.72L544.25 345.68Z" fill="#EEEEEE"/>
<path d="M475.784 486.264C475.784 496.807 475.784 507.349 475.784 517.888C475.784 520.177 475.784 520.171 473.156 520.171L426.711 520.189C424.518 520.189 424.369 520.072 424.369 518.091C424.369 505.956 424.369 493.821 424.369 481.685C424.369 479.566 424.449 479.492 426.787 479.489C432.6 479.489 438.412 479.489 444.223 479.489C446.337 479.489 446.451 479.603 446.454 481.525C446.454 486.924 446.454 492.323 446.454 497.726C446.454 499.728 446.592 499.867 448.778 499.842C453.983 499.781 453.385 500.459 453.403 495.76C453.423 488.769 453.403 481.775 453.403 474.781C453.403 472.717 453.289 472.621 450.94 472.621L426.6 472.646C424.5 472.646 424.38 472.547 424.376 470.616C424.376 450.716 424.376 430.816 424.376 410.916C424.376 408.917 424.49 408.824 426.714 408.824H473.16C475.778 408.824 475.784 408.824 475.784 411.123C475.784 421.715 475.784 432.308 475.784 442.901C475.784 445.15 475.743 445.184 473.322 445.184H455.882C453.465 445.184 453.413 445.141 453.409 442.907C453.409 439.001 453.409 435.092 453.409 431.183C453.409 429.224 453.271 429.125 451.023 429.131C450.218 429.168 449.411 429.168 448.606 429.131C446.9 428.971 446.423 429.681 446.433 431.109C446.489 437.537 446.489 443.964 446.433 450.392C446.433 451.867 446.996 452.363 448.644 452.354C456.818 452.298 464.989 452.326 473.163 452.329C475.771 452.329 475.788 452.351 475.788 454.634C475.799 465.177 475.798 475.721 475.784 486.264Z" fill="#EEEEEE"/>
<path d="M604.307 374.65C604.307 366.472 604.307 358.295 604.307 350.119C604.307 348.182 604.414 348.077 606.514 348.074C612.44 348.074 618.37 348.098 624.296 348.03C625.895 348.012 626.392 348.527 626.368 349.919C626.32 359.122 626.341 368.328 626.347 377.535C626.347 379.753 626.41 379.83 628.831 379.824C633.962 379.809 633.292 380.321 633.32 375.788C633.348 370.544 633.082 365.299 633.403 360.054C633.662 355.787 632.83 351.825 630.416 348.253C628.243 345.038 628.344 342.283 630.865 339.305C632.843 336.97 633.503 334.249 633.393 331.207C633.147 324.632 633.279 318.042 633.355 311.461C633.355 309.894 632.747 309.397 631.041 309.428C625.622 309.508 626.385 308.913 626.385 313.608C626.351 321.735 626.341 329.861 626.41 337.982C626.41 339.546 625.833 340.027 624.11 340.009C618.239 339.935 612.368 339.947 606.497 340.009C604.856 340.009 604.29 339.521 604.294 338.044C604.328 322.675 604.325 307.301 604.283 291.922C604.283 290.549 604.763 290 606.355 290C622.128 290.037 637.899 290.037 653.668 290C655.263 290 655.761 290.521 655.757 291.907C655.719 304.71 655.812 317.514 655.657 330.321C655.633 332.302 654.884 334.421 653.889 336.22C651.368 340.765 651.244 345.195 653.568 349.795C655.574 353.769 655.837 357.993 655.792 362.312C655.664 374.604 655.74 386.892 655.733 399.184C655.733 401.31 655.692 401.344 653.316 401.344C637.717 401.344 622.119 401.344 606.521 401.344C604.404 401.344 604.297 401.245 604.294 399.31C604.298 391.1 604.303 382.879 604.307 374.65Z" fill="#EEEEEE"/>
<path d="M604.34 464.522C604.34 446.683 604.34 428.845 604.34 411.008C604.34 408.873 604.406 408.833 606.737 408.83L652.668 408.814C655.776 408.814 655.776 408.814 655.776 411.641V495.667C655.776 498.274 655.776 498.281 652.796 498.281C644.913 498.281 637.029 498.281 629.146 498.281C626.836 498.281 626.729 498.376 626.729 500.49C626.729 506.352 626.75 512.214 626.729 518.076C626.729 520.078 626.625 520.158 624.384 520.164C618.515 520.164 612.644 520.164 606.771 520.164C604.395 520.164 604.33 520.124 604.326 518.029C604.333 500.196 604.338 482.361 604.34 464.522ZM633.695 453.581C633.695 446.846 633.722 440.111 633.695 433.379C633.67 428.535 634.42 429.217 628.922 429.118C627.261 429.088 626.725 429.621 626.732 431.087C626.774 445.325 626.732 459.567 626.774 473.805C626.774 478.513 625.924 477.924 631.446 477.964C633.549 477.964 633.698 477.838 633.698 475.94C633.691 468.486 633.684 461.033 633.677 453.581H633.695Z" fill="#EEEEEE"/>
<rect x="633.312" y="504.709" width="22.398" height="15.3818" rx="2" fill="#EEEEEE"/>
</svg>
