<svg width="1080" height="810" viewBox="0 0 1080 810" fill="none" xmlns="http://www.w3.org/2000/svg">
<path d="M501.007 347.553L519.608 366.095L424.729 460.708L406.7 442.609L444.74 404.944L406 366.342L424.956 347.287L463.055 385.584L501.007 347.553Z" fill="white"/>
<path d="M482.691 289.266L500.297 271.591L538.919 310.588L578.24 271C584.736 277.545 590.73 283.598 596.772 289.729L557.963 328.243L595.816 365.938L577.599 384.144L482.691 289.266Z" fill="white"/>
<path d="M654.596 347.287L672.665 365.533L634.418 403.672L673.138 442.304C666.238 449.076 660.097 455.118 653.67 461.467L615.62 422.805L577.984 460.589C571.55 454.162 565.429 448.044 559.619 442.235L654.596 347.287Z" fill="white"/>
<path d="M501.184 538.285L482.455 519.407L520.692 481.407L482.623 443.643L501.46 424.775L596.25 519.516L578.349 537.259L540.368 498.933L501.184 538.285Z" fill="white"/>
</svg>
