<svg width="1080" height="810" viewBox="0 0 1080 810" fill="none" xmlns="http://www.w3.org/2000/svg">
<path d="M645.889 486C650.618 447.436 655.311 409.102 660.046 370.538H636.938C632.227 408.886 627.5 447.359 622.757 485.958H576.528C581.245 447.454 585.95 409.06 590.68 370.478H567.571C562.848 408.939 558.137 447.327 553.396 485.915H368C374.62 431.905 381.231 377.933 387.835 324H434.075C429.358 362.522 424.653 400.898 419.942 439.492H443.05C447.773 401.001 452.49 362.594 457.225 324.036H503.46C498.749 362.443 494.05 400.807 489.314 439.437H512.416C517.119 401.081 521.84 362.602 526.58 324H712C705.368 378.091 698.751 432.091 692.147 486H645.889Z" fill="white"/>
</svg>
