<svg width="1080" height="810" viewBox="0 0 1080 810" fill="none" xmlns="http://www.w3.org/2000/svg">
<path d="M469 548.414L469 507.5L539.875 466.582L539.875 466.577L575.309 446.128L575.309 446.118L610.739 425.668L610.744 425.668L610.744 466.577L610.739 466.582L575.309 487.036L539.875 507.495L539.875 507.5L469 548.414Z" fill="white"/>
<path d="M469 466.582L469 343.831L610.744 261.999L610.744 302.908L610.739 302.908L575.309 323.367L575.309 323.372L504.435 364.291L504.435 405.204L539.865 384.745L539.875 384.75L539.875 384.74L575.304 364.291L575.309 364.291L575.309 405.204L575.304 405.204L539.875 425.663L504.435 446.118L469 466.582Z" fill="white"/>
</svg>
