<svg width="1080" height="810" viewBox="0 0 1080 810" fill="none" xmlns="http://www.w3.org/2000/svg">
<path d="M442 438.649C442.021 455.047 448.314 470.816 459.589 482.723C470.864 494.63 486.267 501.773 502.64 502.686V374.611C486.266 375.522 470.861 382.663 459.585 394.571C448.309 406.478 442.017 422.25 442 438.649Z" fill="white"/>
<path d="M577.252 435.075C593.647 434.204 609.084 427.077 620.381 415.163C631.679 403.249 637.976 387.456 637.976 371.038C637.976 354.619 631.679 338.826 620.381 326.912C609.084 314.998 593.647 307.872 577.252 307V435.075Z" fill="white"/>
<path d="M536.84 502.783H570.275V469.348C563.237 483.957 551.449 495.745 536.84 502.783Z" fill="white"/>
<path d="M509.611 371.038V502.691C525.986 501.781 541.392 494.64 552.669 482.732C563.946 470.825 570.24 455.054 570.259 438.654V307C553.884 307.91 538.478 315.051 527.201 326.959C515.924 338.866 509.63 354.638 509.611 371.038Z" fill="white"/>
</svg>
