<svg width="1080" height="810" viewBox="0 0 1080 810" fill="none" xmlns="http://www.w3.org/2000/svg">
<path d="M640 372.373V409.742C630.221 415.683 619.923 420.733 609.232 424.831V521.105C599.097 523.65 588.823 525.619 578.462 527V433.866C565.804 436.424 552.919 437.707 540.003 437.695C527.085 437.707 514.2 436.424 501.541 433.866V526.986C491.181 525.605 480.908 523.636 470.773 521.091V424.831C460.08 420.734 449.781 415.684 440 409.742V372.373C449.488 379.904 459.812 386.327 470.77 391.517C480.619 396.195 490.931 399.839 501.538 402.392C514.119 405.507 527.036 407.075 540 407.062C552.963 407.075 565.879 405.507 578.459 402.392V370.61C566.014 374.498 553.043 376.457 540 376.42C526.956 376.457 513.984 374.498 501.538 370.61C490.698 367.33 480.35 362.617 470.77 356.595V318C479.676 326.563 490.111 333.393 501.538 338.14C513.725 343.194 526.797 345.797 540 345.798C553.202 345.797 566.273 343.194 578.459 338.14C589.888 333.394 600.325 326.564 609.232 318V391.517C620.189 386.327 630.513 379.903 640 372.373Z" fill="white"/>
</svg>
