<svg width="1080" height="1080" viewBox="0 0 1080 1080" fill="none" xmlns="http://www.w3.org/2000/svg">
<rect width="1080" height="1080" fill="black"/>
<path d="M342 637.167C351.987 590.217 361.993 543.194 372.019 496.098H411.707L402.675 538.916H410.722C413.806 524.67 416.869 510.464 419.983 496.059H459.67C456.865 509.151 454.14 521.906 451.355 534.959L432.118 551.084L444.452 567.189C441.687 580.262 438.921 593.365 436.067 606.885L389.625 638.638L405.54 563.402H397.483C394.37 577.896 391.276 592.232 388.133 606.915L343.134 637.734L342 637.167Z" fill="white"/>
<path d="M719.532 551.105L731.915 567.121C729.197 580.011 726.405 593.266 723.54 606.886L677.049 638.699C682.52 612.851 687.702 588.455 692.964 563.552H684.877L675.527 607.005L629.105 638.689L659.443 496.119H699.091L690.089 538.867H698.136C701.23 524.512 704.293 510.295 707.377 496.02H747.064C744.259 509.132 741.524 521.867 738.729 534.95L719.532 551.105Z" fill="white"/>
<path d="M627.731 606.716H540.09C547.968 569.684 555.776 533 563.634 496.088H651.275C643.387 533.04 635.599 569.734 627.731 606.716ZM598.358 519.57L584.96 582.946H593.037C597.513 561.89 601.989 540.973 606.495 519.57H598.358Z" fill="white"/>
<path d="M489.212 582.858H497.17C498.901 575.144 500.651 567.31 502.472 559.198L543.711 551.244L531.984 606.668H444.303C452.171 569.626 459.969 532.883 467.807 496H507.515C501.377 525.019 495.32 553.73 489.212 582.858Z" fill="white"/>
<rect x="234" y="606" width="525" height="138" fill="black"/>
</svg>
