<svg width="1080" height="1080" viewBox="0 0 1080 1080" fill="none" xmlns="http://www.w3.org/2000/svg">
<rect width="1080" height="1080" fill="black"/>
<g clip-path="url(#clip0_436_3)">
<path d="M338.133 576.516H347.889L359.295 512.218H384.03L368.365 601.194H309L333.46 463H358.196L355.585 477.806H390.077L385.679 502.484H351.187L338.133 576.516Z" fill="white"/>
<path d="M437.623 601.194H377.709L399.421 477.807H458.786L443.67 566.645H409.315L407.391 576.516H442.021L437.623 601.194ZM430.203 502.484H420.446L413.438 541.968H423.469L430.203 502.484Z" fill="white"/>
<path d="M518.013 537.032L506.882 601.194H482.147L488.88 561.71H479.124L472.253 601.194H447.518L471.978 463H496.851L489.705 502.484H499.462L503.996 477.806H528.869L520.212 527.161H485.857L483.933 537.032H518.013Z" fill="white"/>
<path d="M545.908 576.516H556.352L567.758 512.218H592.493L576.827 601.194H516.775L541.236 463H565.971L563.36 477.806H597.577L593.18 502.484H558.963L545.908 576.516Z" fill="white"/>
<path d="M655.843 541.968H621.488L619.564 551.839H653.919L645.399 601.194H620.664L625.061 576.516H615.304L611.319 601.194H586.584L608.296 477.807H667.661L655.843 541.968ZM635.642 517.839L637.978 503.032H628.084L625.061 517.839H635.642Z" fill="white"/>
<path d="M673.57 497.548H698.305L680.028 601.194H655.293L673.57 497.548ZM680.028 463H705.038L700.504 487.677H675.081L680.028 463Z" fill="white"/>
<path d="M712.048 616H687.312L711.636 477.807H771L749.288 601.194H714.659L712.048 616ZM718.919 576.516H728.813L741.868 502.484H731.973L718.919 576.516Z" fill="white"/>
</g>
<defs>
<clipPath id="clip0_436_3">
<rect width="462" height="153" fill="white" transform="translate(309 463)"/>
</clipPath>
</defs>
</svg>
