<svg width="1080" height="1080" viewBox="0 0 1080 1080" fill="none" xmlns="http://www.w3.org/2000/svg">
<rect width="1080" height="1080" fill="black"/>
<path d="M545.803 617.5C545.803 594.304 545.803 571.102 545.803 547.896C545.803 544.983 545.848 544.942 549.036 544.942H609.591C613.244 544.942 613.253 544.942 613.253 548.129V686.919C613.253 690.19 613.253 690.178 609.69 690.178H549.14C545.866 690.178 545.812 690.15 545.812 687.104C545.812 663.908 545.812 640.707 545.812 617.5H545.803ZM584.083 617.564C584.083 603.957 584.083 590.352 584.083 576.747C584.083 570.567 584.768 571.517 578.044 571.46C575.179 571.436 575.031 571.593 575.031 574.216C575.031 602.3 575.031 630.383 575.031 658.466C575.031 664.405 574.229 663.6 580.94 663.66C583.939 663.684 584.092 663.548 584.092 660.792C584.083 646.385 584.076 631.976 584.07 617.564H584.083Z" fill="#EEEEEE"/>
<path d="M534.901 462.863C534.901 485.998 534.901 509.131 534.901 532.263C534.901 535.192 534.901 535.224 531.694 535.232C523.966 535.232 516.234 535.18 508.506 535.268C506.312 535.292 505.668 534.572 505.686 532.681C505.772 524.904 505.727 517.127 505.718 509.346C505.718 506.875 505.524 506.67 502.791 506.69C495.738 506.746 496.702 505.962 496.661 512.122C496.616 518.961 496.661 525.801 496.661 532.641C496.661 535.095 496.481 535.24 493.702 535.24H471.635C467.865 535.24 467.856 535.24 467.856 531.957C467.856 489.513 467.856 447.069 467.856 404.625C467.856 400.533 467.915 396.441 467.829 392.354C467.793 390.583 468.572 390 470.495 390C491.059 390.04 511.625 390.04 532.194 390C534.716 390 534.937 391.074 534.937 392.861C534.889 416.196 534.877 439.53 534.901 462.863ZM505.722 448.299C505.722 439.447 505.722 430.596 505.722 421.744C505.722 415.597 506.33 416.631 499.823 416.514C496.805 416.47 496.67 416.631 496.67 419.33C496.67 437.838 496.639 456.346 496.67 474.821C496.67 480.896 495.769 480.051 502.687 480.156C505.551 480.2 505.713 480.019 505.718 477.408C505.727 467.717 505.728 458.014 505.722 448.299Z" fill="#EEEEEE"/>
<path d="M467.844 617.581C467.844 594.382 467.844 571.181 467.844 547.977C467.844 544.979 467.88 544.959 471.249 544.959C478.602 544.959 485.958 544.959 493.316 544.959C496.559 544.959 496.658 545.052 496.658 547.848C496.658 575.743 496.658 603.639 496.658 631.534C496.658 635.111 496.658 635.119 500.554 635.123C506.224 635.123 505.715 635.618 505.715 630.452C505.715 603.028 505.715 575.606 505.715 548.186C505.715 544.967 505.715 544.967 509.345 544.967C516.775 544.967 524.205 544.967 531.633 544.967C534.83 544.967 534.893 545.031 534.893 547.908C534.893 576.072 534.893 604.235 534.893 632.399C534.893 650.703 534.893 669.006 534.893 687.31C534.893 690.126 534.745 690.211 531.574 690.203C523.995 690.183 516.415 690.203 508.836 690.179C505.8 690.179 505.724 690.106 505.719 687.326C505.719 679.613 505.656 671.905 505.719 664.196C505.742 662.301 505.071 661.548 502.886 661.601C495.721 661.782 496.681 660.796 496.64 667.149C496.595 673.989 496.577 680.828 496.676 687.668C496.703 689.607 495.919 690.231 493.789 690.211C486.133 690.13 478.477 690.187 470.821 690.187C467.961 690.187 467.835 690.074 467.831 687.407C467.825 664.125 467.829 640.849 467.844 617.581Z" fill="#EEEEEE"/>
<path d="M389.009 462.647C389.009 439.786 389.009 416.924 389.009 394.06C389.009 390.037 389.009 390.037 393.576 390.037C413.391 390.037 433.207 390.037 453.023 390.037C456.517 390.037 456.522 390.037 456.522 393.159C456.522 409.45 456.567 425.749 456.477 442.031C456.477 443.721 455.837 445.447 455.252 447.089C454.099 450.348 452.613 453.526 451.6 456.805C451.117 458.381 451.077 460.04 451.482 461.633C452.532 465.399 454.104 469.048 455.198 472.806C455.957 475.173 456.384 477.615 456.468 480.076C456.576 497.506 456.526 514.939 456.522 532.38C456.522 535.197 456.481 535.225 453.401 535.229C445.673 535.229 437.94 535.168 430.212 535.265C427.915 535.293 427.267 534.553 427.276 532.565C427.343 515.538 427.109 498.507 427.433 481.468C427.537 475.976 426.492 470.935 423.529 466.276C420.926 462.184 420.223 458.463 423.804 454.52C427.208 450.766 427.528 446.288 427.379 441.605C427.127 433.767 427.316 425.914 427.303 418.076C427.303 415.505 427.118 415.368 424.222 415.332C423.173 415.332 422.124 415.332 421.07 415.332C417.917 415.332 417.827 415.425 417.827 418.313C417.827 446.745 417.827 475.177 417.827 503.609C417.827 513.265 417.827 522.921 417.827 532.577C417.827 535.1 417.661 535.249 414.95 535.249C407.221 535.249 399.489 535.197 391.761 535.269C389.721 535.269 388.996 534.694 389 532.855C389.051 509.46 389.062 486.063 389.032 462.663L389.009 462.647Z" fill="#EEEEEE"/>
<path d="M545.813 462.61C545.813 439.409 545.813 416.207 545.813 393.006C545.813 390.101 545.872 390.061 549.06 390.061C569.398 390.061 589.738 390.061 610.079 390.061C613.164 390.061 613.272 390.149 613.272 392.877C613.272 404.412 613.24 415.947 613.317 427.478C613.317 429.357 612.556 429.916 610.543 429.892C602.815 429.824 595.082 429.812 587.354 429.892C585.215 429.916 584.395 429.284 584.467 427.349C584.589 424.066 584.467 420.775 584.521 417.492C584.553 415.923 583.805 415.303 582.089 415.376C580.589 415.452 579.086 415.452 577.586 415.376C575.582 415.255 575.001 416.096 575.001 417.79C575.034 446.758 575.034 475.726 575.001 504.695C575.001 506.65 575.82 507.254 577.923 507.221C585.58 507.097 584.485 508.054 584.499 501.379C584.535 482.067 584.535 462.755 584.499 443.443C584.499 440.413 584.499 440.421 587.881 440.421C595.312 440.421 602.743 440.397 610.174 440.421C613.132 440.421 613.285 440.57 613.285 443.113C613.285 472.95 613.285 502.79 613.285 532.633C613.285 534.596 612.7 535.345 610.372 535.337C589.733 535.272 569.093 535.272 548.452 535.337C545.89 535.337 545.75 534.222 545.75 532.468C545.786 509.202 545.794 485.934 545.773 462.662L545.813 462.61Z" fill="#EEEEEE"/>
<path d="M456.53 645.942C456.53 659.691 456.53 673.438 456.53 687.182C456.53 690.167 456.53 690.159 453.102 690.159L392.534 690.183C389.674 690.183 389.48 690.03 389.48 687.447C389.48 671.622 389.48 655.796 389.48 639.971C389.48 637.207 389.584 637.111 392.633 637.107C400.214 637.107 407.793 637.107 415.371 637.107C418.128 637.107 418.276 637.255 418.281 639.762C418.281 646.803 418.281 653.844 418.281 660.889C418.281 663.5 418.461 663.681 421.312 663.649C428.099 663.568 427.319 664.453 427.342 658.326C427.369 649.209 427.342 640.088 427.342 630.967C427.342 628.275 427.193 628.15 424.131 628.15L392.39 628.183C389.652 628.183 389.494 628.054 389.489 625.535C389.489 599.585 389.489 573.634 389.489 547.683C389.489 545.076 389.638 544.955 392.538 544.955H453.107C456.521 544.955 456.53 544.955 456.53 547.952C456.53 561.766 456.53 575.58 456.53 589.393C456.53 592.326 456.476 592.371 453.319 592.371H430.576C427.423 592.371 427.355 592.314 427.351 589.401C427.351 584.308 427.351 579.21 427.351 574.112C427.351 571.558 427.171 571.429 424.239 571.437C423.189 571.485 422.137 571.485 421.087 571.437C418.862 571.228 418.24 572.153 418.254 574.016C418.326 582.398 418.326 590.78 418.254 599.162C418.254 601.085 418.988 601.733 421.136 601.721C431.796 601.648 442.451 601.685 453.111 601.689C456.512 601.689 456.534 601.717 456.534 604.694C456.549 618.443 456.548 632.193 456.53 645.942Z" fill="#EEEEEE"/>
<path d="M624.133 500.389C624.133 489.725 624.133 479.062 624.133 468.4C624.133 465.873 624.273 465.736 627.011 465.732C634.739 465.732 642.472 465.764 650.2 465.676C652.285 465.652 652.933 466.324 652.902 468.138C652.839 480.14 652.866 492.146 652.875 504.151C652.875 507.044 652.956 507.145 656.113 507.137C662.805 507.117 661.932 507.784 661.968 501.874C662.004 495.034 661.657 488.195 662.076 481.355C662.413 475.791 661.328 470.624 658.18 465.965C655.347 461.773 655.478 458.18 658.766 454.298C661.346 451.252 662.206 447.703 662.062 443.736C661.742 435.162 661.914 426.568 662.013 417.987C662.013 415.943 661.22 415.295 658.995 415.335C651.929 415.44 652.924 414.663 652.924 420.787C652.879 431.384 652.866 441.982 652.956 452.572C652.956 454.611 652.204 455.239 649.957 455.215C642.3 455.118 634.644 455.134 626.988 455.215C624.849 455.215 624.111 454.579 624.115 452.652C624.16 432.61 624.156 412.562 624.102 392.507C624.102 390.716 624.728 390 626.804 390C647.373 390.048 667.939 390.048 688.503 390C690.583 390 691.232 390.68 691.227 392.486C691.178 409.183 691.299 425.88 691.097 442.582C691.065 445.165 690.088 447.929 688.791 450.274C685.503 456.201 685.341 461.978 688.372 467.977C690.989 473.159 691.331 478.667 691.272 484.3C691.106 500.329 691.205 516.354 691.196 532.383C691.196 535.155 691.142 535.2 688.043 535.2C667.702 535.2 647.361 535.2 627.02 535.2C624.259 535.2 624.12 535.071 624.115 532.548C624.121 521.841 624.127 511.121 624.133 500.389Z" fill="#EEEEEE"/>
<path d="M624.176 617.589C624.176 594.325 624.176 571.064 624.176 547.803C624.176 545.019 624.262 544.967 627.302 544.963L687.199 544.942C691.252 544.942 691.252 544.942 691.252 548.628V658.205C691.252 661.604 691.252 661.612 687.366 661.612C677.086 661.612 666.805 661.612 656.525 661.612C653.512 661.612 653.373 661.737 653.373 664.493C653.373 672.138 653.4 679.782 653.373 687.426C653.373 690.038 653.238 690.142 650.315 690.15C642.662 690.15 635.006 690.15 627.347 690.15C624.248 690.15 624.163 690.098 624.158 687.366C624.167 664.111 624.173 640.852 624.176 617.589ZM662.457 603.322C662.457 594.539 662.493 585.756 662.457 576.977C662.425 570.66 663.402 571.549 656.233 571.42C654.066 571.38 653.368 572.076 653.377 573.987C653.431 592.555 653.377 611.127 653.431 629.695C653.431 635.835 652.324 635.066 659.525 635.118C662.267 635.118 662.461 634.953 662.461 632.479C662.452 622.759 662.443 613.039 662.434 603.322H662.457Z" fill="#EEEEEE"/>
<rect x="661.959" y="669.996" width="29.2086" height="20.0589" rx="2" fill="#EEEEEE"/>
</svg>
