<svg width="1080" height="1080" viewBox="0 0 1080 1080" fill="none" xmlns="http://www.w3.org/2000/svg">
<rect width="1080" height="1080" fill="black"/>
<path d="M352.484 613H346.039L335.688 598.645C333.148 600.923 330.447 603.072 327.582 605.09C324.783 607.043 321.82 608.768 318.695 610.266C315.57 611.698 312.348 612.837 309.027 613.684C305.772 614.53 302.452 614.953 299.066 614.953C291.71 614.953 284.776 613.716 278.266 611.242C271.82 608.768 266.156 605.188 261.273 600.5C256.456 595.747 252.647 589.953 249.848 583.117C247.048 576.281 245.648 568.501 245.648 559.777C245.648 551.639 247.048 544.185 249.848 537.414C252.647 530.578 256.456 524.719 261.273 519.836C266.156 514.953 271.82 511.177 278.266 508.508C284.776 505.773 291.71 504.406 299.066 504.406C302.452 504.406 305.805 504.829 309.125 505.676C312.445 506.522 315.668 507.694 318.793 509.191C321.918 510.689 324.88 512.447 327.68 514.465C330.544 516.483 333.214 518.664 335.688 521.008L346.039 508.605H352.484V613ZM325.629 559.777C325.629 556.132 324.913 552.616 323.48 549.23C322.113 545.78 320.225 542.753 317.816 540.148C315.408 537.479 312.576 535.363 309.32 533.801C306.13 532.173 302.712 531.359 299.066 531.359C295.421 531.359 291.97 531.978 288.715 533.215C285.525 534.452 282.725 536.275 280.316 538.684C277.973 541.092 276.117 544.087 274.75 547.668C273.383 551.184 272.699 555.22 272.699 559.777C272.699 564.335 273.383 568.404 274.75 571.984C276.117 575.5 277.973 578.462 280.316 580.871C282.725 583.28 285.525 585.103 288.715 586.34C291.97 587.577 295.421 588.195 299.066 588.195C302.712 588.195 306.13 587.414 309.32 585.852C312.576 584.224 315.408 582.108 317.816 579.504C320.225 576.835 322.113 573.807 323.48 570.422C324.913 566.971 325.629 563.423 325.629 559.777ZM394.34 479.992C394.34 482.466 393.852 484.777 392.875 486.926C391.964 489.074 390.694 490.962 389.066 492.59C387.439 494.152 385.518 495.422 383.305 496.398C381.156 497.31 378.845 497.766 376.371 497.766C373.897 497.766 371.553 497.31 369.34 496.398C367.191 495.422 365.303 494.152 363.676 492.59C362.113 490.962 360.844 489.074 359.867 486.926C358.956 484.777 358.5 482.466 358.5 479.992C358.5 477.583 358.956 475.305 359.867 473.156C360.844 470.943 362.113 469.055 363.676 467.492C365.303 465.865 367.191 464.595 369.34 463.684C371.553 462.707 373.897 462.219 376.371 462.219C378.845 462.219 381.156 462.707 383.305 463.684C385.518 464.595 387.439 465.865 389.066 467.492C390.694 469.055 391.964 470.943 392.875 473.156C393.852 475.305 394.34 477.583 394.34 479.992ZM389.75 613H362.895V508.41H389.75V613ZM505.234 613H498.789L488.438 598.645C485.898 600.923 483.197 603.072 480.332 605.09C477.533 607.043 474.57 608.768 471.445 610.266C468.32 611.698 465.098 612.837 461.777 613.684C458.522 614.53 455.202 614.953 451.816 614.953C444.46 614.953 437.526 613.586 431.016 610.852C424.57 608.052 418.906 604.211 414.023 599.328C409.206 594.38 405.397 588.553 402.598 581.848C399.798 575.077 398.398 567.72 398.398 559.777C398.398 551.9 399.798 544.576 402.598 537.805C405.397 531.034 409.206 525.174 414.023 520.227C418.906 515.279 424.57 511.405 431.016 508.605C437.526 505.806 444.46 504.406 451.816 504.406C454.16 504.406 456.569 504.602 459.043 504.992C461.582 505.383 464.023 506.034 466.367 506.945C468.776 507.792 471.022 508.931 473.105 510.363C475.189 511.796 476.947 513.553 478.379 515.637V466.809H505.234V613ZM478.379 559.777C478.379 556.132 477.663 552.616 476.23 549.23C474.863 545.78 472.975 542.753 470.566 540.148C468.158 537.479 465.326 535.363 462.07 533.801C458.88 532.173 455.462 531.359 451.816 531.359C448.171 531.359 444.72 532.01 441.465 533.312C438.275 534.615 435.475 536.503 433.066 538.977C430.723 541.385 428.867 544.348 427.5 547.863C426.133 551.379 425.449 555.35 425.449 559.777C425.449 563.618 426.133 567.264 427.5 570.715C428.867 574.165 430.723 577.193 433.066 579.797C435.475 582.401 438.275 584.452 441.465 585.949C444.72 587.447 448.171 588.195 451.816 588.195C455.462 588.195 458.88 587.414 462.07 585.852C465.326 584.224 468.158 582.108 470.566 579.504C472.975 576.835 474.863 573.807 476.23 570.422C477.663 566.971 478.379 563.423 478.379 559.777ZM619.719 559.777C619.719 567.59 618.319 574.882 615.52 581.652C612.72 588.358 608.911 594.185 604.094 599.133C599.276 604.016 593.612 607.889 587.102 610.754C580.656 613.553 573.723 614.953 566.301 614.953C558.944 614.953 552.01 613.553 545.5 610.754C539.055 607.889 533.391 604.016 528.508 599.133C523.69 594.185 519.882 588.358 517.082 581.652C514.283 574.882 512.883 567.59 512.883 559.777C512.883 551.835 514.283 544.478 517.082 537.707C519.882 530.936 523.69 525.109 528.508 520.227C533.391 515.279 539.055 511.405 545.5 508.605C552.01 505.806 558.944 504.406 566.301 504.406C573.723 504.406 580.656 505.741 587.102 508.41C593.612 511.014 599.276 514.758 604.094 519.641C608.911 524.458 612.72 530.285 615.52 537.121C618.319 543.892 619.719 551.444 619.719 559.777ZM592.863 559.777C592.863 555.48 592.147 551.607 590.715 548.156C589.348 544.641 587.46 541.646 585.051 539.172C582.642 536.633 579.81 534.712 576.555 533.41C573.365 532.043 569.947 531.359 566.301 531.359C562.655 531.359 559.204 532.043 555.949 533.41C552.759 534.712 549.96 536.633 547.551 539.172C545.207 541.646 543.352 544.641 541.984 548.156C540.617 551.607 539.934 555.48 539.934 559.777C539.934 563.814 540.617 567.557 541.984 571.008C543.352 574.458 545.207 577.453 547.551 579.992C549.96 582.531 552.759 584.549 555.949 586.047C559.204 587.479 562.655 588.195 566.301 588.195C569.947 588.195 573.365 587.512 576.555 586.145C579.81 584.777 582.642 582.857 585.051 580.383C587.46 577.909 589.348 574.914 590.715 571.398C592.147 567.883 592.863 564.009 592.863 559.777ZM733.539 559.777C733.539 567.59 732.139 574.882 729.34 581.652C726.54 588.358 722.732 594.185 717.914 599.133C713.096 604.016 707.432 607.889 700.922 610.754C694.477 613.553 687.543 614.953 680.121 614.953C672.764 614.953 665.831 613.553 659.32 610.754C652.875 607.889 647.211 604.016 642.328 599.133C637.51 594.185 633.702 588.358 630.902 581.652C628.103 574.882 626.703 567.59 626.703 559.777C626.703 551.835 628.103 544.478 630.902 537.707C633.702 530.936 637.51 525.109 642.328 520.227C647.211 515.279 652.875 511.405 659.32 508.605C665.831 505.806 672.764 504.406 680.121 504.406C687.543 504.406 694.477 505.741 700.922 508.41C707.432 511.014 713.096 514.758 717.914 519.641C722.732 524.458 726.54 530.285 729.34 537.121C732.139 543.892 733.539 551.444 733.539 559.777ZM706.684 559.777C706.684 555.48 705.967 551.607 704.535 548.156C703.168 544.641 701.28 541.646 698.871 539.172C696.462 536.633 693.63 534.712 690.375 533.41C687.185 532.043 683.767 531.359 680.121 531.359C676.475 531.359 673.025 532.043 669.77 533.41C666.579 534.712 663.78 536.633 661.371 539.172C659.027 541.646 657.172 544.641 655.805 548.156C654.438 551.607 653.754 555.48 653.754 559.777C653.754 563.814 654.438 567.557 655.805 571.008C657.172 574.458 659.027 577.453 661.371 579.992C663.78 582.531 666.579 584.549 669.77 586.047C673.025 587.479 676.475 588.195 680.121 588.195C683.767 588.195 687.185 587.512 690.375 586.145C693.63 584.777 696.462 582.857 698.871 580.383C701.28 577.909 703.168 574.914 704.535 571.398C705.967 567.883 706.684 564.009 706.684 559.777ZM767.141 613H740.285V466.809H767.141V558.996L806.887 508.605H837.551L802.883 552.16L837.551 613H806.887L785.695 575.012L767.141 599.621V613Z" fill="white"/>
</svg>
