<svg width="1080" height="1080" viewBox="0 0 1080 1080" fill="none" xmlns="http://www.w3.org/2000/svg">
<rect width="1080" height="1080" fill="black"/>
<path d="M432.344 480.6H454.232V599H408.152V480.6H430.168V577.112H432.344V480.6ZM456.527 504.792H478.415V599H456.527V504.792ZM456.527 480.6H478.415V502.616H456.527V480.6ZM502.793 504.792H526.857V599H480.777V480.6H502.793V504.792ZM502.793 526.808V577.112H504.969V526.808H502.793ZM529.152 480.6H551.04V599H529.152V480.6ZM553.402 504.792H575.29V599H553.402V504.792ZM553.402 480.6H575.29V502.616H553.402V480.6ZM577.652 480.6H623.732V526.68H601.844V502.616H599.668V528.856H623.732V599H577.652V553.048H599.668V577.112H601.844V550.872H577.652V480.6ZM626.027 480.6H672.107V526.68H650.219V502.616H648.043V528.856H672.107V599H626.027V553.048H648.043V577.112H650.219V550.872H626.027V480.6Z" fill="white"/>
</svg>
