<svg width="1080" height="1080" viewBox="0 0 1080 1080" fill="none" xmlns="http://www.w3.org/2000/svg">
<rect width="1080" height="1080" fill="black"/>
<path d="M413.11 572.42V523V514.04V502.42H446.15C446.15 510.82 446.15 519.15 446.15 527.55L440.34 530.98L446.15 534.34C446.15 547.01 446.15 559.75 446.15 572.42H413.11ZM424.8 560.8H434.53V541.06L428.65 537.7L424.8 539.94V560.8ZM424.8 526.43L434.53 520.83V514.04H424.8V526.43ZM461.373 514.04V533.57L471.103 527.9V514.04H461.373ZM471.103 547.85L465.503 544.63L461.373 547.01V572.42H449.683V523.56V514.04V502.42H482.793C482.793 513.13 482.793 523.91 482.793 534.69C477.193 537.84 477.193 537.84 477.193 537.84L482.793 541.13V554.57V572.42H471.103V547.85ZM507.673 572.42V542.81L497.943 548.41V572.42H486.323V521.18V514.04V502.42H519.363C519.363 525.73 519.363 549.11 519.363 572.42H507.673ZM497.943 534.9L507.673 529.37V514.04H497.943V534.9ZM533.606 502.42V514.04V522.58V526.71L537.176 524.68L545.296 519.99V514.04V502.42H556.006V513.83V514.04V527.27L548.866 531.4L556.006 535.46V548.97V560.8V572.42H545.296V560.8V542.81L537.176 538.12L533.606 540.15V560.8V572.42H522.896V560.8V546.31V532.87V529.86V516.49V514.04V502.42H533.606ZM559.536 560.8L571.226 554.08V560.8H580.956V540.99L559.536 553.31V519.36V514.04V502.42H592.576V514.04L580.956 520.76V514.04H571.226V533.15L592.576 520.83V572.42H559.536V560.8ZM607.798 514.04V560.8H617.528V514.04H607.798ZM596.108 514.04V502.42H629.218V572.42H596.108V524.33V514.04ZM632.749 572.42V521.95V514.04V502.42H644.439L654.169 513.76V502.42H665.859C665.859 525.73 665.859 549.11 665.859 572.42H654.169V531.61L644.439 520.34V572.42H632.749Z" fill="white"/>
</svg>
