<svg width="120" height="120" viewBox="0 0 120 120" fill="none" xmlns="http://www.w3.org/2000/svg">
<path d="M51.3333 57H6V6H57V28.6667H45.6667V34.3333H57V57H51.3333ZM34.3333 23H40V17.3333H23V23H34.3333ZM34.3333 45.6667H40V40H23V45.6667H34.3333Z" fill="white"/>
<path d="M108.331 57H62.998V6H113.998V57H108.331ZM102.665 40V17.3333H96.998V40H102.665Z" fill="white"/>
<path d="M51.3333 113.998H45.6667V96.998H40V113.998H23V96.998H17.3333V113.998H6V62.998H28.6667V74.3314H34.3333V62.998H57V113.998H51.3333Z" fill="white"/>
<path d="M108.331 113.998H96.998V96.998H91.3314V113.998H62.998V62.998H91.3314V79.998H96.998V62.998H113.998V85.6647H102.665V91.3314H113.998V113.998H108.331Z" fill="white"/>
</svg>
